<svg width="155" height="260" viewBox="0 0 155 260" fill="none" xmlns="http://www.w3.org/2000/svg">
<circle cx="77.5" cy="73.5" r="71.5" fill="white" stroke="#FF9900" stroke-width="4"/>
<path d="M88.875 66.8125C88.875 69.8293 87.6766 72.7226 85.5433 74.8558C83.4101 76.9891 80.5168 78.1875 77.5 78.1875C74.4832 78.1875 71.5899 76.9891 69.4567 74.8558C67.3234 72.7226 66.125 69.8293 66.125 66.8125C66.125 63.7957 67.3234 60.9024 69.4567 58.7692C71.5899 56.6359 74.4832 55.4375 77.5 55.4375C80.5168 55.4375 83.4101 56.6359 85.5433 58.7692C87.6766 60.9024 88.875 63.7957 88.875 66.8125V66.8125Z" stroke="#FF9900" stroke-width="3" stroke-linecap="round" stroke-linejoin="round"/>
<path d="M105.938 66.8125C105.938 93.8926 77.5 109.469 77.5 109.469C77.5 109.469 49.0625 93.8926 49.0625 66.8125C49.0625 59.2704 52.0586 52.0372 57.3917 46.7042C62.7247 41.3711 69.9579 38.375 77.5 38.375C85.0421 38.375 92.2753 41.3711 97.6084 46.7042C102.941 52.0372 105.938 59.2704 105.938 66.8125V66.8125Z" stroke="#FF9900" stroke-width="3" stroke-linecap="round" stroke-linejoin="round"/>
<path d="M24.7289 189H21.5584C21.3709 188.088 21.0428 187.287 20.574 186.597C20.1138 185.906 19.5513 185.327 18.8865 184.858C18.2303 184.381 17.5016 184.023 16.7005 183.784C15.8993 183.545 15.0641 183.426 14.1948 183.426C12.6096 183.426 11.1735 183.827 9.88654 184.628C8.60813 185.429 7.58967 186.609 6.83114 188.169C6.08114 189.729 5.70614 191.642 5.70614 193.909C5.70614 196.176 6.08114 198.089 6.83114 199.649C7.58967 201.209 8.60813 202.389 9.88654 203.19C11.1735 203.991 12.6096 204.392 14.1948 204.392C15.0641 204.392 15.8993 204.273 16.7005 204.034C17.5016 203.795 18.2303 203.442 18.8865 202.973C19.5513 202.496 20.1138 201.912 20.574 201.222C21.0428 200.523 21.3709 199.722 21.5584 198.818H24.7289C24.4902 200.156 24.0556 201.354 23.4249 202.411C22.7942 203.467 22.0101 204.366 21.0726 205.108C20.1351 205.841 19.0826 206.399 17.915 206.783C16.7559 207.166 15.5158 207.358 14.1948 207.358C11.9618 207.358 9.97603 206.812 8.23739 205.722C6.49876 204.631 5.13086 203.08 4.1337 201.068C3.13654 199.057 2.63796 196.67 2.63796 193.909C2.63796 191.148 3.13654 188.761 4.1337 186.75C5.13086 184.739 6.49876 183.188 8.23739 182.097C9.97603 181.006 11.9618 180.46 14.1948 180.46C15.5158 180.46 16.7559 180.652 17.915 181.036C19.0826 181.419 20.1351 181.982 21.0726 182.723C22.0101 183.456 22.7942 184.351 23.4249 185.408C24.0556 186.456 24.4902 187.653 24.7289 189ZM32.4601 195.188V207H29.443V180.818H32.4601V190.432H32.7157C33.176 189.418 33.8663 188.612 34.7868 188.016C35.7157 187.411 36.9515 187.108 38.4941 187.108C39.8322 187.108 41.0041 187.376 42.0098 187.913C43.0154 188.442 43.7953 189.256 44.3493 190.355C44.9118 191.446 45.193 192.835 45.193 194.523V207H42.176V194.727C42.176 193.168 41.7711 191.962 40.9615 191.109C40.1603 190.249 39.0481 189.818 37.6248 189.818C36.6362 189.818 35.7498 190.027 34.9657 190.445C34.1902 190.862 33.5765 191.472 33.1248 192.273C32.6816 193.074 32.4601 194.045 32.4601 195.188ZM56.4909 207.46C55.2466 207.46 54.1174 207.226 53.1032 206.757C52.089 206.28 51.2836 205.594 50.687 204.699C50.0904 203.795 49.7921 202.705 49.7921 201.426C49.7921 200.301 50.0137 199.389 50.4569 198.69C50.9 197.983 51.4924 197.429 52.2338 197.028C52.9753 196.628 53.7935 196.33 54.6884 196.134C55.5918 195.929 56.4995 195.767 57.4114 195.648C58.6046 195.494 59.5719 195.379 60.3134 195.303C61.0634 195.217 61.6088 195.077 61.9498 194.881C62.2992 194.685 62.4739 194.344 62.4739 193.858V193.756C62.4739 192.494 62.1287 191.514 61.4384 190.815C60.7566 190.116 59.7211 189.767 58.3319 189.767C56.8915 189.767 55.7623 190.082 54.9441 190.713C54.1259 191.344 53.5506 192.017 53.2182 192.733L50.3546 191.71C50.8659 190.517 51.5478 189.588 52.4 188.923C53.2608 188.25 54.1983 187.781 55.2125 187.517C56.2353 187.244 57.2409 187.108 58.2296 187.108C58.8603 187.108 59.5847 187.185 60.4029 187.338C61.2296 187.483 62.0265 187.786 62.7935 188.246C63.5691 188.706 64.2125 189.401 64.7239 190.33C65.2353 191.259 65.4909 192.503 65.4909 194.062V207H62.4739V204.341H62.3205C62.1159 204.767 61.775 205.223 61.2978 205.709C60.8205 206.195 60.1855 206.608 59.3929 206.949C58.6003 207.29 57.633 207.46 56.4909 207.46ZM56.9512 204.75C58.1444 204.75 59.15 204.516 59.9682 204.047C60.7949 203.578 61.4171 202.973 61.8347 202.232C62.2608 201.49 62.4739 200.71 62.4739 199.892V197.131C62.3461 197.284 62.0648 197.425 61.6301 197.553C61.204 197.672 60.7097 197.778 60.1472 197.872C59.5932 197.957 59.052 198.034 58.5236 198.102C58.0037 198.162 57.5819 198.213 57.258 198.256C56.4739 198.358 55.7409 198.524 55.0591 198.754C54.3858 198.976 53.8404 199.312 53.4228 199.764C53.0137 200.207 52.8091 200.812 52.8091 201.58C52.8091 202.628 53.1969 203.42 53.9725 203.957C54.7566 204.486 55.7495 204.75 56.9512 204.75ZM70.9977 207V187.364H73.9125V190.33H74.117C74.475 189.358 75.1227 188.57 76.0602 187.964C76.9977 187.359 78.0545 187.057 79.2306 187.057C79.4522 187.057 79.7292 187.061 80.0616 187.07C80.394 187.078 80.6454 187.091 80.8159 187.108V190.176C80.7136 190.151 80.4792 190.112 80.1127 190.061C79.7548 190.001 79.3755 189.972 78.975 189.972C78.0204 189.972 77.1681 190.172 76.4181 190.572C75.6767 190.964 75.0886 191.51 74.6539 192.209C74.2278 192.899 74.0147 193.687 74.0147 194.574V207H70.9977ZM91.7207 214.773C90.2633 214.773 89.0105 214.585 87.9622 214.21C86.9139 213.844 86.0403 213.358 85.3414 212.753C84.6511 212.156 84.1014 211.517 83.6923 210.835L86.0957 209.148C86.3684 209.506 86.7136 209.915 87.1312 210.375C87.5488 210.844 88.1199 211.249 88.8443 211.589C89.5772 211.939 90.536 212.114 91.7207 212.114C93.3059 212.114 94.6142 211.73 95.6454 210.963C96.6767 210.196 97.1923 208.994 97.1923 207.358V203.369H96.9366C96.715 203.727 96.3997 204.17 95.9906 204.699C95.59 205.219 95.0105 205.683 94.252 206.092C93.502 206.493 92.4877 206.693 91.2093 206.693C89.6241 206.693 88.2008 206.318 86.9395 205.568C85.6866 204.818 84.6937 203.727 83.9608 202.295C83.2363 200.864 82.8741 199.125 82.8741 197.08C82.8741 195.068 83.2278 193.317 83.9352 191.825C84.6426 190.325 85.627 189.166 86.8883 188.348C88.1497 187.521 89.6071 187.108 91.2605 187.108C92.5389 187.108 93.5531 187.321 94.3031 187.747C95.0616 188.165 95.6412 188.642 96.0417 189.179C96.4508 189.707 96.7662 190.142 96.9877 190.483H97.2946V187.364H100.209V207.562C100.209 209.25 99.8258 210.622 99.0588 211.679C98.3002 212.744 97.2775 213.524 95.9906 214.018C94.7122 214.521 93.2889 214.773 91.7207 214.773ZM91.6184 203.983C92.8287 203.983 93.8514 203.706 94.6866 203.152C95.5218 202.598 96.1568 201.801 96.5914 200.761C97.0261 199.722 97.2434 198.477 97.2434 197.028C97.2434 195.614 97.0304 194.365 96.6042 193.283C96.1781 192.2 95.5474 191.352 94.7122 190.739C93.877 190.125 92.8457 189.818 91.6184 189.818C90.34 189.818 89.2747 190.142 88.4224 190.79C87.5787 191.437 86.9437 192.307 86.5176 193.398C86.1 194.489 85.8912 195.699 85.8912 197.028C85.8912 198.392 86.1042 199.598 86.5304 200.646C86.965 201.686 87.6042 202.504 88.448 203.101C89.3002 203.689 90.3571 203.983 91.6184 203.983ZM105.732 207V187.364H108.749V207H105.732ZM107.266 184.091C106.678 184.091 106.171 183.891 105.745 183.49C105.327 183.089 105.118 182.608 105.118 182.045C105.118 181.483 105.327 181.001 105.745 180.601C106.171 180.2 106.678 180 107.266 180C107.854 180 108.357 180.2 108.775 180.601C109.201 181.001 109.414 181.483 109.414 182.045C109.414 182.608 109.201 183.089 108.775 183.49C108.357 183.891 107.854 184.091 107.266 184.091ZM117.292 195.188V207H114.275V187.364H117.19V190.432H117.445C117.906 189.435 118.605 188.634 119.542 188.028C120.48 187.415 121.69 187.108 123.173 187.108C124.502 187.108 125.666 187.381 126.663 187.926C127.66 188.463 128.436 189.281 128.99 190.381C129.544 191.472 129.82 192.852 129.82 194.523V207H126.803V194.727C126.803 193.185 126.403 191.983 125.602 191.122C124.801 190.253 123.701 189.818 122.303 189.818C121.34 189.818 120.48 190.027 119.721 190.445C118.971 190.862 118.379 191.472 117.944 192.273C117.509 193.074 117.292 194.045 117.292 195.188ZM143.26 214.773C141.802 214.773 140.55 214.585 139.501 214.21C138.453 213.844 137.579 213.358 136.881 212.753C136.19 212.156 135.64 211.517 135.231 210.835L137.635 209.148C137.907 209.506 138.253 209.915 138.67 210.375C139.088 210.844 139.659 211.249 140.383 211.589C141.116 211.939 142.075 212.114 143.26 212.114C144.845 212.114 146.153 211.73 147.184 210.963C148.216 210.196 148.731 208.994 148.731 207.358V203.369H148.476C148.254 203.727 147.939 204.17 147.53 204.699C147.129 205.219 146.55 205.683 145.791 206.092C145.041 206.493 144.027 206.693 142.748 206.693C141.163 206.693 139.74 206.318 138.479 205.568C137.226 204.818 136.233 203.727 135.5 202.295C134.775 200.864 134.413 199.125 134.413 197.08C134.413 195.068 134.767 193.317 135.474 191.825C136.182 190.325 137.166 189.166 138.427 188.348C139.689 187.521 141.146 187.108 142.8 187.108C144.078 187.108 145.092 187.321 145.842 187.747C146.601 188.165 147.18 188.642 147.581 189.179C147.99 189.707 148.305 190.142 148.527 190.483H148.834V187.364H151.748V207.562C151.748 209.25 151.365 210.622 150.598 211.679C149.839 212.744 148.817 213.524 147.53 214.018C146.251 214.521 144.828 214.773 143.26 214.773ZM143.157 203.983C144.368 203.983 145.39 203.706 146.226 203.152C147.061 202.598 147.696 201.801 148.131 200.761C148.565 199.722 148.782 198.477 148.782 197.028C148.782 195.614 148.569 194.365 148.143 193.283C147.717 192.2 147.086 191.352 146.251 190.739C145.416 190.125 144.385 189.818 143.157 189.818C141.879 189.818 140.814 190.142 139.961 190.79C139.118 191.437 138.483 192.307 138.057 193.398C137.639 194.489 137.43 195.699 137.43 197.028C137.43 198.392 137.643 199.598 138.069 200.646C138.504 201.686 139.143 202.504 139.987 203.101C140.839 203.689 141.896 203.983 143.157 203.983ZM26.6001 235.761L23.8899 236.528C23.7195 236.077 23.468 235.638 23.1357 235.212C22.8118 234.777 22.3686 234.419 21.8061 234.138C21.2436 233.857 20.5234 233.716 19.6456 233.716C18.4439 233.716 17.4425 233.993 16.6413 234.547C15.8487 235.092 15.4524 235.787 15.4524 236.631C15.4524 237.381 15.7251 237.973 16.2706 238.408C16.8161 238.842 17.6683 239.205 18.8274 239.494L21.7422 240.21C23.4979 240.636 24.8061 241.288 25.6669 242.166C26.5277 243.036 26.9581 244.156 26.9581 245.528C26.9581 246.653 26.6342 247.659 25.9865 248.545C25.3473 249.432 24.4524 250.131 23.3018 250.642C22.1513 251.153 20.8132 251.409 19.2876 251.409C17.2848 251.409 15.6271 250.974 14.3146 250.105C13.0021 249.236 12.1712 247.966 11.8217 246.295L14.6854 245.58C14.9581 246.636 15.4737 247.429 16.2322 247.957C16.9993 248.486 18.0007 248.75 19.2365 248.75C20.6428 248.75 21.7592 248.452 22.5859 247.855C23.4212 247.25 23.8388 246.526 23.8388 245.682C23.8388 245 23.6001 244.429 23.1229 243.969C22.6456 243.5 21.9126 243.151 20.924 242.92L17.6513 242.153C15.853 241.727 14.532 241.067 13.6882 240.172C12.853 239.268 12.4354 238.139 12.4354 236.784C12.4354 235.676 12.7464 234.696 13.3686 233.844C13.9993 232.991 14.8558 232.322 15.9382 231.837C17.0291 231.351 18.2649 231.108 19.6456 231.108C21.5888 231.108 23.1143 231.534 24.2223 232.386C25.3388 233.239 26.1314 234.364 26.6001 235.761ZM40.0394 231.364V233.92H29.8633V231.364H40.0394ZM32.8292 226.659H35.8462V245.375C35.8462 246.227 35.9698 246.866 36.217 247.293C36.4727 247.71 36.7965 247.991 37.1886 248.136C37.5891 248.273 38.011 248.341 38.4542 248.341C38.7866 248.341 39.0593 248.324 39.2724 248.29C39.4854 248.247 39.6559 248.213 39.7837 248.188L40.3974 250.898C40.1928 250.974 39.9073 251.051 39.5408 251.128C39.1744 251.213 38.7099 251.256 38.1474 251.256C37.2951 251.256 36.4599 251.072 35.6417 250.706C34.832 250.339 34.1587 249.781 33.6218 249.031C33.0934 248.281 32.8292 247.335 32.8292 246.193V226.659ZM50.3562 251.46C49.1119 251.46 47.9826 251.226 46.9684 250.757C45.9542 250.28 45.1488 249.594 44.5522 248.699C43.9556 247.795 43.6573 246.705 43.6573 245.426C43.6573 244.301 43.8789 243.389 44.3221 242.69C44.7653 241.983 45.3576 241.429 46.0991 241.028C46.8406 240.628 47.6587 240.33 48.5536 240.134C49.457 239.929 50.3647 239.767 51.2766 239.648C52.4698 239.494 53.4371 239.379 54.1786 239.303C54.9286 239.217 55.4741 239.077 55.815 238.881C56.1644 238.685 56.3391 238.344 56.3391 237.858V237.756C56.3391 236.494 55.994 235.514 55.3036 234.815C54.6218 234.116 53.5863 233.767 52.1971 233.767C50.7567 233.767 49.6275 234.082 48.8093 234.713C47.9911 235.344 47.4158 236.017 47.0835 236.733L44.2198 235.71C44.7312 234.517 45.413 233.588 46.2653 232.923C47.1261 232.25 48.0636 231.781 49.0778 231.517C50.1005 231.244 51.1062 231.108 52.0948 231.108C52.7255 231.108 53.4499 231.185 54.2681 231.338C55.0948 231.483 55.8917 231.786 56.6587 232.246C57.4343 232.706 58.0778 233.401 58.5891 234.33C59.1005 235.259 59.3562 236.503 59.3562 238.062V251H56.3391V248.341H56.1857C55.9812 248.767 55.6403 249.223 55.163 249.709C54.6857 250.195 54.0508 250.608 53.2582 250.949C52.4656 251.29 51.4982 251.46 50.3562 251.46ZM50.8164 248.75C52.0096 248.75 53.0153 248.516 53.8335 248.047C54.6602 247.578 55.2823 246.973 55.6999 246.232C56.1261 245.49 56.3391 244.71 56.3391 243.892V241.131C56.2113 241.284 55.93 241.425 55.4954 241.553C55.0692 241.672 54.5749 241.778 54.0124 241.872C53.4585 241.957 52.9173 242.034 52.3889 242.102C51.869 242.162 51.4471 242.213 51.1232 242.256C50.3391 242.358 49.6062 242.524 48.9244 242.754C48.2511 242.976 47.7056 243.312 47.288 243.764C46.8789 244.207 46.6744 244.812 46.6744 245.58C46.6744 246.628 47.0621 247.42 47.8377 247.957C48.6218 248.486 49.6147 248.75 50.8164 248.75ZM73.4027 231.364V233.92H63.2266V231.364H73.4027ZM66.1925 226.659H69.2095V245.375C69.2095 246.227 69.3331 246.866 69.5803 247.293C69.8359 247.71 70.1598 247.991 70.5518 248.136C70.9524 248.273 71.3743 248.341 71.8175 248.341C72.1499 248.341 72.4226 248.324 72.6357 248.29C72.8487 248.247 73.0192 248.213 73.147 248.188L73.7607 250.898C73.5561 250.974 73.2706 251.051 72.9041 251.128C72.5376 251.213 72.0732 251.256 71.5107 251.256C70.6584 251.256 69.8232 251.072 69.005 250.706C68.1953 250.339 67.522 249.781 66.9851 249.031C66.4567 248.281 66.1925 247.335 66.1925 246.193V226.659ZM77.9411 251V231.364H80.9581V251H77.9411ZM79.4751 228.091C78.8871 228.091 78.38 227.891 77.9538 227.49C77.5362 227.089 77.3274 226.608 77.3274 226.045C77.3274 225.483 77.5362 225.001 77.9538 224.601C78.38 224.2 78.8871 224 79.4751 224C80.0632 224 80.5661 224.2 80.9837 224.601C81.4098 225.001 81.6229 225.483 81.6229 226.045C81.6229 226.608 81.4098 227.089 80.9837 227.49C80.5661 227.891 80.0632 228.091 79.4751 228.091ZM94.4613 251.409C92.6886 251.409 91.1332 250.987 89.7951 250.143C88.4656 249.3 87.4258 248.119 86.6758 246.602C85.9343 245.085 85.5636 243.312 85.5636 241.284C85.5636 239.239 85.9343 237.453 86.6758 235.928C87.4258 234.402 88.4656 233.217 89.7951 232.374C91.1332 231.53 92.6886 231.108 94.4613 231.108C96.234 231.108 97.7852 231.53 99.1147 232.374C100.453 233.217 101.493 234.402 102.234 235.928C102.984 237.453 103.359 239.239 103.359 241.284C103.359 243.312 102.984 245.085 102.234 246.602C101.493 248.119 100.453 249.3 99.1147 250.143C97.7852 250.987 96.234 251.409 94.4613 251.409ZM94.4613 248.699C95.8079 248.699 96.9158 248.354 97.7852 247.663C98.6545 246.973 99.2979 246.065 99.7156 244.94C100.133 243.815 100.342 242.597 100.342 241.284C100.342 239.972 100.133 238.749 99.7156 237.615C99.2979 236.482 98.6545 235.565 97.7852 234.866C96.9158 234.168 95.8079 233.818 94.4613 233.818C93.1147 233.818 92.0067 234.168 91.1374 234.866C90.2681 235.565 89.6246 236.482 89.207 237.615C88.7894 238.749 88.5806 239.972 88.5806 241.284C88.5806 242.597 88.7894 243.815 89.207 244.94C89.6246 246.065 90.2681 246.973 91.1374 247.663C92.0067 248.354 93.1147 248.699 94.4613 248.699ZM110.982 239.188V251H107.964V231.364H110.879V234.432H111.135C111.595 233.435 112.294 232.634 113.232 232.028C114.169 231.415 115.379 231.108 116.862 231.108C118.192 231.108 119.355 231.381 120.352 231.926C121.349 232.463 122.125 233.281 122.679 234.381C123.233 235.472 123.51 236.852 123.51 238.523V251H120.493V238.727C120.493 237.185 120.092 235.983 119.291 235.122C118.49 234.253 117.391 233.818 115.993 233.818C115.03 233.818 114.169 234.027 113.411 234.445C112.661 234.862 112.068 235.472 111.634 236.273C111.199 237.074 110.982 238.045 110.982 239.188ZM142.932 235.761L140.222 236.528C140.051 236.077 139.8 235.638 139.468 235.212C139.144 234.777 138.701 234.419 138.138 234.138C137.576 233.857 136.855 233.716 135.978 233.716C134.776 233.716 133.775 233.993 132.973 234.547C132.181 235.092 131.784 235.787 131.784 236.631C131.784 237.381 132.057 237.973 132.603 238.408C133.148 238.842 134 239.205 135.159 239.494L138.074 240.21C139.83 240.636 141.138 241.288 141.999 242.166C142.86 243.036 143.29 244.156 143.29 245.528C143.29 246.653 142.966 247.659 142.319 248.545C141.679 249.432 140.784 250.131 139.634 250.642C138.483 251.153 137.145 251.409 135.62 251.409C133.617 251.409 131.959 250.974 130.647 250.105C129.334 249.236 128.503 247.966 128.154 246.295L131.017 245.58C131.29 246.636 131.806 247.429 132.564 247.957C133.331 248.486 134.333 248.75 135.569 248.75C136.975 248.75 138.091 248.452 138.918 247.855C139.753 247.25 140.171 246.526 140.171 245.682C140.171 245 139.932 244.429 139.455 243.969C138.978 243.5 138.245 243.151 137.256 242.92L133.983 242.153C132.185 241.727 130.864 241.067 130.02 240.172C129.185 239.268 128.767 238.139 128.767 236.784C128.767 235.676 129.078 234.696 129.701 233.844C130.331 232.991 131.188 232.322 132.27 231.837C133.361 231.351 134.597 231.108 135.978 231.108C137.921 231.108 139.446 231.534 140.554 232.386C141.671 233.239 142.463 234.364 142.932 235.761Z" fill="#FF9900"/>
</svg>
