<svg width="147" height="260" viewBox="0 0 147 260" fill="none" xmlns="http://www.w3.org/2000/svg">
<circle cx="73.5" cy="73.5" r="71.5" fill="white" stroke="#FF9900" stroke-width="4"/>
<path d="M40 80L82 35L73 68H106L64 113L73 80H40Z" stroke="#FF9900" stroke-width="3" stroke-linecap="round" stroke-linejoin="round"/>
<path d="M13.5474 207V180.818H29.3485V183.631H16.7179V192.477H28.5304V195.29H16.7179V204.188H29.5531V207H13.5474ZM37.671 180.818V207H34.6539V180.818H37.671ZM51.4299 207.409C49.5378 207.409 47.9057 206.991 46.5336 206.156C45.1699 205.312 44.1174 204.136 43.3759 202.628C42.6429 201.111 42.2765 199.347 42.2765 197.335C42.2765 195.324 42.6429 193.551 43.3759 192.017C44.1174 190.474 45.1486 189.273 46.4696 188.412C47.7992 187.543 49.3503 187.108 51.123 187.108C52.1458 187.108 53.1557 187.278 54.1529 187.619C55.15 187.96 56.0577 188.514 56.8759 189.281C57.6941 190.04 58.3461 191.045 58.8319 192.298C59.3176 193.551 59.5605 195.094 59.5605 196.926V198.205H44.4242V195.597H56.4924C56.4924 194.489 56.2708 193.5 55.8276 192.631C55.3929 191.761 54.7708 191.075 53.9611 190.572C53.16 190.07 52.214 189.818 51.123 189.818C49.9213 189.818 48.8816 190.116 48.0037 190.713C47.1344 191.301 46.4654 192.068 45.9966 193.014C45.5279 193.96 45.2935 194.974 45.2935 196.057V197.795C45.2935 199.278 45.5492 200.536 46.0605 201.567C46.5804 202.589 47.3006 203.369 48.2211 203.906C49.1415 204.435 50.2111 204.699 51.4299 204.699C52.2225 204.699 52.9384 204.588 53.5776 204.366C54.2253 204.136 54.7836 203.795 55.2523 203.344C55.7211 202.884 56.0833 202.312 56.339 201.631L59.2537 202.449C58.9469 203.438 58.4313 204.307 57.7069 205.057C56.9824 205.798 56.0875 206.378 55.0222 206.795C53.9569 207.205 52.7594 207.409 51.4299 207.409ZM72.1273 207.409C70.2864 207.409 68.7012 206.974 67.3716 206.105C66.0421 205.236 65.0194 204.038 64.3034 202.513C63.5875 200.987 63.2296 199.244 63.2296 197.284C63.2296 195.29 63.5961 193.53 64.329 192.004C65.0705 190.47 66.1017 189.273 67.4228 188.412C68.7523 187.543 70.3034 187.108 72.0762 187.108C73.4569 187.108 74.7012 187.364 75.8091 187.875C76.9171 188.386 77.8248 189.102 78.5321 190.023C79.2395 190.943 79.6784 192.017 79.8489 193.244H76.8319C76.6017 192.349 76.0904 191.557 75.2978 190.866C74.5137 190.168 73.4569 189.818 72.1273 189.818C70.9512 189.818 69.9199 190.125 69.0336 190.739C68.1557 191.344 67.4696 192.2 66.9753 193.308C66.4895 194.408 66.2466 195.699 66.2466 197.182C66.2466 198.699 66.4853 200.02 66.9625 201.145C67.4483 202.27 68.1301 203.143 69.008 203.766C69.8944 204.388 70.9341 204.699 72.1273 204.699C72.9114 204.699 73.623 204.562 74.2623 204.29C74.9015 204.017 75.4426 203.625 75.8858 203.114C76.329 202.602 76.6444 201.989 76.8319 201.273H79.8489C79.6784 202.432 79.2566 203.476 78.5833 204.405C77.9185 205.325 77.0364 206.058 75.937 206.604C74.8461 207.141 73.5762 207.409 72.1273 207.409ZM92.7992 187.364V189.92H82.623V187.364H92.7992ZM85.589 182.659H88.606V201.375C88.606 202.227 88.7296 202.866 88.9767 203.293C89.2324 203.71 89.5563 203.991 89.9483 204.136C90.3489 204.273 90.7708 204.341 91.214 204.341C91.5463 204.341 91.8191 204.324 92.0321 204.29C92.2452 204.247 92.4157 204.213 92.5435 204.188L93.1571 206.898C92.9526 206.974 92.6671 207.051 92.3006 207.128C91.9341 207.213 91.4696 207.256 90.9071 207.256C90.0549 207.256 89.2196 207.072 88.4015 206.706C87.5918 206.339 86.9185 205.781 86.3816 205.031C85.8532 204.281 85.589 203.335 85.589 202.193V182.659ZM97.3375 207V187.364H100.252V190.33H100.457C100.815 189.358 101.463 188.57 102.4 187.964C103.338 187.359 104.394 187.057 105.57 187.057C105.792 187.057 106.069 187.061 106.401 187.07C106.734 187.078 106.985 187.091 107.156 187.108V190.176C107.053 190.151 106.819 190.112 106.453 190.061C106.095 190.001 105.715 189.972 105.315 189.972C104.36 189.972 103.508 190.172 102.758 190.572C102.017 190.964 101.428 191.51 100.994 192.209C100.568 192.899 100.355 193.687 100.355 194.574V207H97.3375ZM110.732 207V187.364H113.749V207H110.732ZM112.266 184.091C111.678 184.091 111.171 183.891 110.745 183.49C110.327 183.089 110.118 182.608 110.118 182.045C110.118 181.483 110.327 181.001 110.745 180.601C111.171 180.2 111.678 180 112.266 180C112.854 180 113.357 180.2 113.775 180.601C114.201 181.001 114.414 181.483 114.414 182.045C114.414 182.608 114.201 183.089 113.775 183.49C113.357 183.891 112.854 184.091 112.266 184.091ZM127.252 207.409C125.411 207.409 123.826 206.974 122.497 206.105C121.167 205.236 120.144 204.038 119.428 202.513C118.713 200.987 118.355 199.244 118.355 197.284C118.355 195.29 118.721 193.53 119.454 192.004C120.195 190.47 121.227 189.273 122.548 188.412C123.877 187.543 125.428 187.108 127.201 187.108C128.582 187.108 129.826 187.364 130.934 187.875C132.042 188.386 132.95 189.102 133.657 190.023C134.365 190.943 134.803 192.017 134.974 193.244H131.957C131.727 192.349 131.215 191.557 130.423 190.866C129.639 190.168 128.582 189.818 127.252 189.818C126.076 189.818 125.045 190.125 124.159 190.739C123.281 191.344 122.595 192.2 122.1 193.308C121.615 194.408 121.372 195.699 121.372 197.182C121.372 198.699 121.61 200.02 122.088 201.145C122.573 202.27 123.255 203.143 124.133 203.766C125.019 204.388 126.059 204.699 127.252 204.699C128.036 204.699 128.748 204.562 129.387 204.29C130.026 204.017 130.568 203.625 131.011 203.114C131.454 202.602 131.769 201.989 131.957 201.273H134.974C134.803 202.432 134.382 203.476 133.708 204.405C133.044 205.325 132.161 206.058 131.062 206.604C129.971 207.141 128.701 207.409 127.252 207.409ZM23.0604 231.364L15.799 251H12.7308L5.46946 231.364H8.74219L14.1626 247.011H14.3672L19.7876 231.364H23.0604ZM34.5724 251.409C32.6804 251.409 31.0483 250.991 29.6761 250.156C28.3125 249.312 27.2599 248.136 26.5185 246.628C25.7855 245.111 25.419 243.347 25.419 241.335C25.419 239.324 25.7855 237.551 26.5185 236.017C27.2599 234.474 28.2912 233.273 29.6122 232.412C30.9418 231.543 32.4929 231.108 34.2656 231.108C35.2884 231.108 36.2983 231.278 37.2955 231.619C38.2926 231.96 39.2003 232.514 40.0185 233.281C40.8366 234.04 41.4886 235.045 41.9744 236.298C42.4602 237.551 42.7031 239.094 42.7031 240.926V242.205H27.5668V239.597H39.6349C39.6349 238.489 39.4134 237.5 38.9702 236.631C38.5355 235.761 37.9134 235.075 37.1037 234.572C36.3026 234.07 35.3565 233.818 34.2656 233.818C33.0639 233.818 32.0241 234.116 31.1463 234.713C30.277 235.301 29.608 236.068 29.1392 237.014C28.6705 237.96 28.4361 238.974 28.4361 240.057V241.795C28.4361 243.278 28.6918 244.536 29.2031 245.567C29.723 246.589 30.4432 247.369 31.3636 247.906C32.2841 248.435 33.3537 248.699 34.5724 248.699C35.3651 248.699 36.081 248.588 36.7202 248.366C37.3679 248.136 37.9261 247.795 38.3949 247.344C38.8636 246.884 39.2259 246.312 39.4815 245.631L42.3963 246.449C42.0895 247.438 41.5739 248.307 40.8494 249.057C40.125 249.798 39.2301 250.378 38.1648 250.795C37.0994 251.205 35.902 251.409 34.5724 251.409ZM50.3097 239.188V251H47.2926V224.818H50.3097V234.432H50.5653C51.0256 233.418 51.7159 232.612 52.6364 232.016C53.5653 231.411 54.8011 231.108 56.3438 231.108C57.6818 231.108 58.8537 231.376 59.8594 231.913C60.8651 232.442 61.6449 233.256 62.1989 234.355C62.7614 235.446 63.0426 236.835 63.0426 238.523V251H60.0256V238.727C60.0256 237.168 59.6207 235.962 58.8111 235.109C58.0099 234.249 56.8977 233.818 55.4744 233.818C54.4858 233.818 53.5994 234.027 52.8153 234.445C52.0398 234.862 51.4261 235.472 50.9744 236.273C50.5313 237.074 50.3097 238.045 50.3097 239.188ZM68.5621 251V231.364H71.5792V251H68.5621ZM70.0962 228.091C69.5082 228.091 69.0011 227.891 68.5749 227.49C68.1573 227.089 67.9485 226.608 67.9485 226.045C67.9485 225.483 68.1573 225.001 68.5749 224.601C69.0011 224.2 69.5082 224 70.0962 224C70.6843 224 71.1871 224.2 71.6048 224.601C72.0309 225.001 72.244 225.483 72.244 226.045C72.244 226.608 72.0309 227.089 71.6048 227.49C71.1871 227.891 70.6843 228.091 70.0962 228.091ZM85.0824 251.409C83.2415 251.409 81.6563 250.974 80.3267 250.105C78.9972 249.236 77.9744 248.038 77.2585 246.513C76.5426 244.987 76.1847 243.244 76.1847 241.284C76.1847 239.29 76.5511 237.53 77.2841 236.004C78.0256 234.47 79.0568 233.273 80.3778 232.412C81.7074 231.543 83.2585 231.108 85.0312 231.108C86.4119 231.108 87.6562 231.364 88.7642 231.875C89.8722 232.386 90.7798 233.102 91.4872 234.023C92.1946 234.943 92.6335 236.017 92.804 237.244H89.7869C89.5568 236.349 89.0455 235.557 88.2528 234.866C87.4688 234.168 86.4119 233.818 85.0824 233.818C83.9063 233.818 82.875 234.125 81.9886 234.739C81.1108 235.344 80.4247 236.2 79.9304 237.308C79.4446 238.408 79.2017 239.699 79.2017 241.182C79.2017 242.699 79.4403 244.02 79.9176 245.145C80.4034 246.27 81.0852 247.143 81.9631 247.766C82.8494 248.388 83.8892 248.699 85.0824 248.699C85.8665 248.699 86.5781 248.562 87.2173 248.29C87.8565 248.017 88.3977 247.625 88.8409 247.114C89.2841 246.602 89.5994 245.989 89.7869 245.273H92.804C92.6335 246.432 92.2116 247.476 91.5384 248.405C90.8736 249.325 89.9915 250.058 88.892 250.604C87.8011 251.141 86.5313 251.409 85.0824 251.409ZM100.232 224.818V251H97.2145V224.818H100.232ZM113.99 251.409C112.098 251.409 110.466 250.991 109.094 250.156C107.73 249.312 106.678 248.136 105.936 246.628C105.203 245.111 104.837 243.347 104.837 241.335C104.837 239.324 105.203 237.551 105.936 236.017C106.678 234.474 107.709 233.273 109.03 232.412C110.36 231.543 111.911 231.108 113.684 231.108C114.706 231.108 115.716 231.278 116.713 231.619C117.711 231.96 118.618 232.514 119.436 233.281C120.255 234.04 120.907 235.045 121.392 236.298C121.878 237.551 122.121 239.094 122.121 240.926V242.205H106.985V239.597H119.053C119.053 238.489 118.831 237.5 118.388 236.631C117.953 235.761 117.331 235.075 116.522 234.572C115.721 234.07 114.775 233.818 113.684 233.818C112.482 233.818 111.442 234.116 110.564 234.713C109.695 235.301 109.026 236.068 108.557 237.014C108.088 237.96 107.854 238.974 107.854 240.057V241.795C107.854 243.278 108.11 244.536 108.621 245.567C109.141 246.589 109.861 247.369 110.782 247.906C111.702 248.435 112.772 248.699 113.99 248.699C114.783 248.699 115.499 248.588 116.138 248.366C116.786 248.136 117.344 247.795 117.813 247.344C118.282 246.884 118.644 246.312 118.9 245.631L121.814 246.449C121.507 247.438 120.992 248.307 120.267 249.057C119.543 249.798 118.648 250.378 117.583 250.795C116.517 251.205 115.32 251.409 113.99 251.409ZM140.62 235.761L137.909 236.528C137.739 236.077 137.488 235.638 137.155 235.212C136.831 234.777 136.388 234.419 135.826 234.138C135.263 233.857 134.543 233.716 133.665 233.716C132.463 233.716 131.462 233.993 130.661 234.547C129.868 235.092 129.472 235.787 129.472 236.631C129.472 237.381 129.745 237.973 130.29 238.408C130.836 238.842 131.688 239.205 132.847 239.494L135.762 240.21C137.517 240.636 138.826 241.288 139.686 242.166C140.547 243.036 140.978 244.156 140.978 245.528C140.978 246.653 140.654 247.659 140.006 248.545C139.367 249.432 138.472 250.131 137.321 250.642C136.171 251.153 134.833 251.409 133.307 251.409C131.304 251.409 129.647 250.974 128.334 250.105C127.022 249.236 126.191 247.966 125.841 246.295L128.705 245.58C128.978 246.636 129.493 247.429 130.252 247.957C131.019 248.486 132.02 248.75 133.256 248.75C134.662 248.75 135.779 248.452 136.605 247.855C137.441 247.25 137.858 246.526 137.858 245.682C137.858 245 137.62 244.429 137.142 243.969C136.665 243.5 135.932 243.151 134.944 242.92L131.671 242.153C129.873 241.727 128.551 241.067 127.708 240.172C126.873 239.268 126.455 238.139 126.455 236.784C126.455 235.676 126.766 234.696 127.388 233.844C128.019 232.991 128.875 232.322 129.958 231.837C131.049 231.351 132.284 231.108 133.665 231.108C135.608 231.108 137.134 231.534 138.242 232.386C139.358 233.239 140.151 234.364 140.62 235.761Z" fill="#FF9900"/>
</svg>
