<svg width="201" height="53" viewBox="0 0 201 53" fill="none" xmlns="http://www.w3.org/2000/svg">
<path d="M4.23079 35.8007L4.86857 27.0968L5.86696 27.2177L5.63153 30.4307L5.71613 30.441C5.79777 30.3365 5.90988 30.2043 6.05249 30.0444C6.19812 29.8819 6.39871 29.7461 6.65425 29.637C6.91281 29.5254 7.25362 29.4953 7.67666 29.5465C8.2238 29.6128 8.696 29.8086 9.09326 30.134C9.49052 30.4594 9.78772 30.8885 9.98485 31.4212C10.182 31.9539 10.2554 32.563 10.2052 33.2487C10.1545 33.94 9.99357 34.5251 9.72233 35.0039C9.45129 35.4799 9.0983 35.8316 8.66338 36.059C8.22866 36.2836 7.74055 36.3631 7.19905 36.2975C6.78165 36.247 6.45253 36.137 6.2117 35.9678C5.97108 35.7957 5.78962 35.6122 5.66732 35.4173C5.54523 35.2196 5.45189 35.0568 5.38728 34.9289L5.26883 34.9146L5.19533 35.9176L4.23079 35.8007ZM5.45142 32.6556C5.4153 33.1486 5.45535 33.5923 5.57157 33.9865C5.688 34.3779 5.87662 34.6966 6.13744 34.9426C6.39847 35.1858 6.72922 35.3316 7.1297 35.3801C7.5471 35.4307 7.9035 35.3624 8.19891 35.1752C8.49734 34.9856 8.73086 34.7108 8.89949 34.3511C9.07115 33.9889 9.174 33.5754 9.20805 33.1107C9.24168 32.6518 9.20148 32.2295 9.08746 31.8441C8.97646 31.4562 8.78784 31.1375 8.52159 30.888C8.25836 30.636 7.91523 30.4844 7.49219 30.4332C7.08607 30.384 6.73723 30.446 6.44569 30.6194C6.15435 30.7899 5.92468 31.0508 5.75668 31.402C5.58888 31.7504 5.48713 32.1683 5.45142 32.6556Z" fill="white"/>
<path d="M17.6788 39.7416C17.509 39.7265 17.3583 39.6989 17.2266 39.6587C17.0948 39.6214 17.0041 39.5877 16.9543 39.5576L17.2507 38.6948C17.4911 38.7789 17.7051 38.8207 17.8927 38.8202C18.0803 38.8197 18.2498 38.7507 18.4012 38.6131C18.5553 38.4786 18.701 38.2508 18.8383 37.9295L19.0491 37.4353L16.9477 30.6491L18.0344 30.7455L19.5887 36.1154L19.6566 36.1214L21.7018 31.071L22.7884 31.1674L19.668 38.4135C19.5276 38.7402 19.3602 39.006 19.1658 39.211C18.9713 39.4189 18.7498 39.5659 18.5014 39.6522C18.2558 39.7387 17.9816 39.7685 17.6788 39.7416Z" fill="white"/>
<path d="M38.7729 38.6792L37.6655 38.6438L40.8798 30.0188L41.9702 30.0536L45.1616 38.8831L44.0543 38.8478L41.4572 31.418L41.3891 31.4158L38.7729 38.6792ZM39.1862 35.2831L43.6498 35.4256L43.6486 36.3631L39.185 36.2206L39.1862 35.2831Z" fill="white"/>
<path d="M52.3729 38.9898L52.1778 32.4472L53.1493 32.4406L53.1798 33.4629L53.265 33.4623C53.391 33.1121 53.6031 32.8394 53.9013 32.6443C54.1994 32.4463 54.5615 32.3458 54.9877 32.3429C55.4195 32.34 55.7818 32.4355 56.0745 32.6295C56.37 32.8206 56.604 33.0903 56.7763 33.4385L56.8445 33.438C57.002 33.0989 57.2455 32.8289 57.5747 32.6278C57.9039 32.4239 58.3029 32.3204 58.7717 32.3172C59.3569 32.3132 59.841 32.4931 60.2241 32.8569C60.6071 33.2179 60.8101 33.7831 60.833 34.5527L60.9636 38.9314L59.9579 38.9382L59.8273 34.5595C59.813 34.0768 59.6706 33.7326 59.4002 33.5271C59.1298 33.3216 58.8156 33.2201 58.4577 33.2225C57.9975 33.2257 57.6451 33.3672 57.4006 33.6472C57.1559 33.9244 57.0399 34.2745 57.0526 34.6976L57.1796 38.9571L56.1569 38.9641L56.0233 34.4831C56.0122 34.1111 55.8825 33.8123 55.6342 33.5868C55.3859 33.3584 55.0714 33.2455 54.6907 33.2481C54.4294 33.2499 54.1871 33.3211 53.964 33.4618C53.7437 33.6025 53.5677 33.7968 53.4359 34.0448C53.3068 34.2899 53.247 34.573 53.2566 34.8938L53.3785 38.9829L52.3729 38.9898Z" fill="white"/>
<path d="M70.3973 38.7834C69.9829 38.8012 69.6023 38.7394 69.2553 38.5979C68.9082 38.4537 68.6266 38.2369 68.4103 37.9477C68.194 37.6556 68.0732 37.2969 68.0482 36.8715C68.0261 36.4971 68.0821 36.1905 68.216 35.9516C68.3497 35.7098 68.5361 35.517 68.7752 35.3731C69.0143 35.2292 69.2809 35.1182 69.5751 35.0402C69.8719 34.9592 70.171 34.8923 70.4724 34.8395C70.8667 34.7714 71.1866 34.7192 71.432 34.6831C71.6801 34.644 71.859 34.5894 71.9687 34.5193C72.0813 34.449 72.1328 34.3331 72.1232 34.1714L72.1212 34.1374C72.0965 33.7177 71.9624 33.3965 71.7188 33.1738C71.478 32.951 71.1263 32.8496 70.6637 32.8695C70.184 32.8901 69.8141 33.0112 69.554 33.2328C69.2939 33.4544 69.1155 33.6867 69.0188 33.9297L68.0451 33.6304C68.192 33.226 68.4009 32.9071 68.6717 32.6737C68.9452 32.4373 69.2482 32.2679 69.5808 32.1655C69.916 32.0601 70.2483 32.0003 70.5775 31.9861C70.7875 31.9771 71.0303 31.9922 71.3058 32.0316C71.5839 32.0679 71.8552 32.1572 72.1197 32.2994C72.387 32.4414 72.6149 32.6633 72.8034 32.9651C72.9919 33.2669 73.1014 33.6773 73.132 34.1963L73.3855 38.5013L72.3808 38.5445L72.3287 37.6597L72.2776 37.6619C72.2178 37.8066 72.1132 37.9633 71.9638 38.1317C71.8144 38.3002 71.611 38.4469 71.3537 38.5717C71.0965 38.6965 70.7777 38.767 70.3973 38.7834ZM70.4975 37.8749C70.8948 37.8579 71.2252 37.7655 71.4885 37.5978C71.7546 37.4299 71.9499 37.2197 72.0745 36.967C72.2018 36.7141 72.2575 36.4516 72.2415 36.1793L72.1874 35.2605C72.1478 35.3133 72.0569 35.3642 71.9147 35.4129C71.7751 35.4587 71.6125 35.5013 71.4271 35.5405C71.2442 35.5768 71.0655 35.6101 70.8909 35.6403C70.7189 35.6676 70.5794 35.6907 70.4724 35.7095C70.2133 35.7548 69.9724 35.8206 69.7499 35.9069C69.53 35.9903 69.3549 36.1101 69.2247 36.2664C69.0972 36.4198 69.0409 36.624 69.0559 36.8793C69.0765 37.2281 69.2212 37.4863 69.49 37.6539C69.7614 37.8185 70.0973 37.8922 70.4975 37.8749Z" fill="white"/>
<path d="M80.3236 38.0983L80.2595 37.3339L83.5664 32.303L83.5607 32.2351L79.974 32.5011L79.8956 31.5669L84.7743 31.205L84.8412 32.0034L81.6335 36.9927L81.6392 37.0607L85.3619 36.7845L85.4402 37.7187L80.3236 38.0983Z" fill="white"/>
<path d="M95.1877 36.9408C94.6002 37.0036 94.0692 36.9188 93.595 36.6866C93.1236 36.4541 92.7359 36.0998 92.4321 35.6237C92.131 35.1473 91.9436 34.5731 91.8697 33.901C91.7951 33.2233 91.8529 32.6186 92.0431 32.0868C92.2361 31.5548 92.5376 31.1255 92.9475 30.7988C93.3603 30.4719 93.8604 30.2771 94.448 30.2143C95.0356 30.1515 95.5651 30.2364 96.0365 30.4689C96.5107 30.7011 96.8985 31.0568 97.1999 31.536C97.504 32.015 97.6934 32.5933 97.7679 33.271C97.8418 33.9431 97.7821 34.5438 97.5888 35.073C97.3983 35.6019 97.0967 36.0298 96.684 36.3567C96.274 36.6833 95.7753 36.878 95.1877 36.9408ZM95.089 36.0428C95.5353 35.9951 95.8899 35.8415 96.1529 35.582C96.4159 35.3225 96.5961 34.999 96.6935 34.6115C96.791 34.2239 96.8158 33.8127 96.7679 33.3778C96.7201 32.943 96.6063 32.5451 96.4266 32.1843C96.2469 31.8235 96.0002 31.5427 95.6866 31.342C95.373 31.1412 94.9931 31.0646 94.5467 31.1123C94.1004 31.16 93.7459 31.315 93.4833 31.5773C93.2206 31.8396 93.0407 32.166 92.9436 32.5563C92.8465 32.9467 92.8218 33.3593 92.8696 33.7942C92.9175 34.2291 93.0311 34.6255 93.2105 34.9835C93.3899 35.3414 93.6363 35.6194 93.9495 35.8174C94.2628 36.0153 94.6426 36.0905 95.089 36.0428Z" fill="white"/>
<path d="M105.964 31.5443L106.499 35.4453L105.503 35.5857L104.613 29.101L105.575 28.9654L105.714 29.9786L105.799 29.9667C105.906 29.616 106.1 29.3189 106.382 29.0754C106.663 28.8292 107.049 28.6715 107.539 28.6025C107.977 28.5406 108.374 28.5766 108.728 28.7103C109.081 28.8412 109.374 29.0753 109.607 29.4126C109.839 29.7471 109.993 30.1901 110.069 30.7418L110.635 34.8622L109.639 35.0026L109.082 30.9497C109.012 30.4403 108.826 30.0621 108.522 29.8151C108.218 29.5653 107.836 29.4729 107.374 29.538C107.057 29.5828 106.782 29.6918 106.55 29.865C106.322 30.0378 106.154 30.2666 106.047 30.5514C105.94 30.8362 105.912 31.1672 105.964 31.5443Z" fill="white"/>
<path d="M130.041 31.6529C129.423 31.7756 128.864 31.7444 128.365 31.5595C127.869 31.3713 127.454 31.0538 127.121 30.6073C126.79 30.1574 126.565 29.6027 126.444 28.9431C126.324 28.2836 126.337 27.6786 126.485 27.1281C126.635 26.5742 126.9 26.1133 127.28 25.7454C127.663 25.3742 128.144 25.1311 128.723 25.0162C129.058 24.9499 129.398 24.9403 129.745 24.9874C130.091 25.0346 130.421 25.1574 130.735 25.3559C131.048 25.5515 131.321 25.839 131.555 26.2183C131.789 26.5976 131.961 27.0877 132.071 27.6885L132.148 28.1077L127.199 29.089L127.042 28.2338L130.988 27.4515C130.922 27.0882 130.79 26.7784 130.593 26.5221C130.399 26.2652 130.154 26.0806 129.859 25.9682C129.567 25.8552 129.243 25.8341 128.886 25.9049C128.493 25.9828 128.171 26.148 127.92 26.4005C127.671 26.6497 127.498 26.9446 127.401 27.2851C127.305 27.6257 127.289 27.9735 127.354 28.3284L127.458 28.8985C127.547 29.3847 127.706 29.7803 127.935 30.0853C128.167 30.387 128.449 30.596 128.782 30.7124C129.115 30.8259 129.48 30.8432 129.879 30.7642C130.138 30.7128 130.365 30.6301 130.561 30.516C130.759 30.3986 130.921 30.2506 131.047 30.0721C131.173 29.8908 131.257 29.6801 131.3 29.4399L132.302 29.5193C132.261 29.8633 132.144 30.1818 131.953 30.4747C131.76 30.7648 131.502 31.0128 131.179 31.2188C130.855 31.422 130.476 31.5667 130.041 31.6529Z" fill="white"/>
<path d="M141.937 24.643L142.127 25.5609L138.406 26.4145L138.215 25.4966L141.937 24.643Z" fill="white"/>
<path d="M150.036 27.0134L148.05 18.5152L153.112 17.1878L153.325 18.1007L149.286 19.16L149.957 22.0315L153.617 21.0716L153.83 21.9845L150.17 22.9444L151.059 26.7453L150.036 27.0134Z" fill="white"/>
<path d="M161.328 14.8787L163.499 23.3315L162.533 23.6129L160.362 15.16L161.328 14.8787Z" fill="white"/>
<path d="M172.908 20.6018C172.308 20.7938 171.752 20.8253 171.241 20.6964C170.733 20.5638 170.293 20.293 169.923 19.8839C169.554 19.4712 169.279 18.942 169.099 18.2962C168.919 17.6504 168.876 17.0441 168.972 16.4772C169.069 15.9067 169.288 15.4163 169.631 15.0059C169.975 14.5919 170.429 14.295 170.991 14.1151C171.316 14.0113 171.652 13.9636 171.999 13.9719C172.346 13.9802 172.684 14.0659 173.013 14.2292C173.341 14.3897 173.638 14.6464 173.904 14.9994C174.171 15.3523 174.386 15.823 174.55 16.4113L174.665 16.8217L169.859 18.3574L169.625 17.5201L173.457 16.2957C173.358 15.94 173.199 15.645 172.98 15.4109C172.764 15.1759 172.505 15.0188 172.203 14.9395C171.904 14.8593 171.581 14.8746 171.234 14.9852C170.853 15.1072 170.549 15.3084 170.324 15.589C170.101 15.866 169.957 16.1802 169.893 16.5315C169.829 16.8828 169.845 17.2322 169.942 17.5797L170.098 18.1379C170.231 18.614 170.425 18.9916 170.68 19.2709C170.937 19.5465 171.235 19.7238 171.576 19.8028C171.915 19.879 172.278 19.8553 172.665 19.7317C172.917 19.6513 173.134 19.5431 173.318 19.4071C173.503 19.2675 173.649 19.1014 173.758 18.9088C173.865 18.7135 173.929 18.4934 173.949 18.2486L174.948 18.2155C174.939 18.5641 174.853 18.8955 174.691 19.2098C174.527 19.5213 174.295 19.7982 173.994 20.0403C173.692 20.2798 173.33 20.4669 172.908 20.6018Z" fill="white"/>
<path d="M184.384 16.7473C183.789 16.9577 183.235 17.0061 182.723 16.8925C182.212 16.7752 181.766 16.5174 181.386 16.119C181.008 15.717 180.72 15.1955 180.524 14.5544C180.327 13.9134 180.27 13.3076 180.35 12.7372C180.433 12.1631 180.639 11.6654 180.97 11.2441C181.303 10.8192 181.748 10.5082 182.305 10.3111C182.627 10.1974 182.961 10.1394 183.307 10.1372C183.654 10.135 183.993 10.2106 184.325 10.3641C184.656 10.5149 184.96 10.7629 185.234 11.1082C185.509 11.4535 185.736 11.9181 185.915 12.5021L186.04 12.9096L181.284 14.5927L181.029 13.7615L184.821 12.4196C184.713 12.0664 184.547 11.776 184.323 11.5482C184.101 11.3194 183.839 11.17 183.535 11.0997C183.235 11.0285 182.913 11.0536 182.57 11.1749C182.192 11.3085 181.895 11.5192 181.677 11.807C181.461 12.0911 181.326 12.4099 181.271 12.7636C181.216 13.1172 181.241 13.4665 181.347 13.8115L181.517 14.3656C181.662 14.8383 181.865 15.2105 182.126 15.4823C182.389 15.7505 182.692 15.9189 183.033 15.9877C183.374 16.0538 183.736 16.0191 184.119 15.8835C184.368 15.7954 184.582 15.6805 184.761 15.5388C184.943 15.3934 185.085 15.2227 185.188 15.0266C185.29 14.8278 185.348 14.6055 185.362 14.3598L186.358 14.2964C186.358 14.6457 186.281 14.9801 186.126 15.2997C185.971 15.6165 185.747 15.9008 185.453 16.1523C185.158 16.4012 184.801 16.5995 184.384 16.7473Z" fill="white"/>
<path d="M193.742 6.15927L194.011 6.96824L190.846 8.18945L190.578 7.38049L193.742 6.15927ZM191.007 5.53606L191.945 5.174L193.908 11.0956C193.998 11.3653 194.103 11.5527 194.225 11.6578C194.348 11.7593 194.478 11.8094 194.615 11.8082C194.754 11.8033 194.893 11.7742 195.03 11.721C195.134 11.6811 195.217 11.643 195.28 11.6067C195.341 11.5676 195.391 11.5364 195.428 11.5129L195.903 12.2968C195.847 12.3456 195.767 12.4041 195.661 12.4724C195.556 12.5433 195.416 12.6126 195.241 12.6801C194.976 12.7823 194.697 12.8246 194.404 12.8068C194.114 12.7881 193.846 12.6922 193.6 12.5194C193.357 12.3455 193.176 12.0779 193.056 11.7165L191.007 5.53606Z" fill="white"/>
</svg>
