<svg width="207" height="260" viewBox="0 0 207 260" fill="none" xmlns="http://www.w3.org/2000/svg">
<circle cx="103.5" cy="73.5" r="71.5" stroke="#F9A826" stroke-width="4"/>
<path d="M105.875 37.6151V39.7924C105.875 41.0727 106.442 42.2841 107.428 43.1044L111.522 46.5161C113.216 47.9306 113.572 50.3877 112.35 52.2277L110.395 55.1641C109.33 56.7595 107.764 57.9546 105.944 58.5604L105.396 58.7444C104.777 58.9512 104.215 59.2978 103.752 59.7573C103.289 60.2168 102.938 60.7767 102.727 61.3937C102.516 62.0107 102.449 62.6681 102.533 63.3149C102.617 63.9617 102.849 64.5804 103.211 65.1231C104.625 67.2506 103.859 70.1332 101.574 71.2756L91.5001 76.3126L93.1216 80.3721C93.4486 81.1966 93.4655 82.1117 93.1691 82.9477C92.8727 83.7837 92.2832 84.4838 91.5099 84.9183C90.7365 85.3527 89.8319 85.4919 88.9638 85.31C88.0956 85.1282 87.3229 84.6376 86.7889 83.9294L84.1861 80.4564C83.7449 79.8685 83.1609 79.4032 82.4894 79.1045C81.8178 78.8058 81.0811 78.6837 80.3491 78.7497C79.6171 78.8158 78.9142 79.0678 78.307 79.4819C77.6998 79.896 77.2085 80.4584 76.8797 81.1157L74.2501 86.3751L71.9041 86.9616M105.875 37.6189C99.8148 37.1103 93.7277 38.2128 88.2308 40.8145C82.7338 43.4163 78.0223 47.4249 74.5736 52.4341C71.1249 57.4433 69.0616 63.2751 68.5928 69.3386C68.124 75.4021 69.2663 81.4818 71.9041 86.9616M105.875 37.6189C111.885 38.1201 117.658 40.1877 122.619 43.6156C127.58 47.0435 131.556 51.712 134.151 57.1556C136.746 62.5992 137.868 68.6279 137.406 74.6405C136.945 80.6532 134.915 86.4398 131.52 91.4236M131.52 91.4236L130.842 89.3957C130.269 87.6784 129.17 86.1849 127.701 85.1268C126.232 84.0687 124.468 83.4996 122.657 83.5001H120.25L119.008 82.2581C118.384 81.6331 117.621 81.1655 116.781 80.8938C115.94 80.622 115.048 80.5539 114.176 80.695C113.304 80.8362 112.479 81.1826 111.767 81.7056C111.056 82.2287 110.479 82.9134 110.084 83.7032L109.946 83.9831C109.57 84.7368 109.041 85.4041 108.393 85.9426C107.745 86.4811 106.992 86.879 106.182 87.1111L102.387 88.1921C100.278 88.7939 98.9597 90.8831 99.3201 93.0489L99.5999 94.7279C99.9066 96.5449 101.478 97.8751 103.318 97.8751C106.561 97.8751 109.444 99.9527 110.467 103.031L111.292 105.496M131.516 91.4274C126.733 98.443 119.533 103.451 111.292 105.496M111.292 105.496C103.596 107.402 95.4791 106.6 88.3057 103.225C81.1323 99.8492 75.3403 94.1061 71.9041 86.9616M117.375 60.5001C117.375 63.9347 115.869 67.0167 113.48 69.1251" stroke="#F9A826" stroke-width="3" stroke-linecap="round" stroke-linejoin="round"/>
<path d="M61.3365 207V180.818H64.5069V204.188H76.6774V207H61.3365ZM89.1547 207.409C87.3819 207.409 85.8265 206.987 84.4885 206.143C83.1589 205.3 82.1191 204.119 81.3691 202.602C80.6277 201.085 80.2569 199.312 80.2569 197.284C80.2569 195.239 80.6277 193.453 81.3691 191.928C82.1191 190.402 83.1589 189.217 84.4885 188.374C85.8265 187.53 87.3819 187.108 89.1547 187.108C90.9274 187.108 92.4785 187.53 93.8081 188.374C95.1461 189.217 96.1859 190.402 96.9274 191.928C97.6774 193.453 98.0524 195.239 98.0524 197.284C98.0524 199.312 97.6774 201.085 96.9274 202.602C96.1859 204.119 95.1461 205.3 93.8081 206.143C92.4785 206.987 90.9274 207.409 89.1547 207.409ZM89.1547 204.699C90.5012 204.699 91.6092 204.354 92.4785 203.663C93.3478 202.973 93.9913 202.065 94.4089 200.94C94.8265 199.815 95.0353 198.597 95.0353 197.284C95.0353 195.972 94.8265 194.749 94.4089 193.615C93.9913 192.482 93.3478 191.565 92.4785 190.866C91.6092 190.168 90.5012 189.818 89.1547 189.818C87.8081 189.818 86.7001 190.168 85.8308 190.866C84.9615 191.565 84.318 192.482 83.9004 193.615C83.4828 194.749 83.274 195.972 83.274 197.284C83.274 198.597 83.4828 199.815 83.9004 200.94C84.318 202.065 84.9615 202.973 85.8308 203.663C86.7001 204.354 87.8081 204.699 89.1547 204.699ZM110.635 207.409C108.794 207.409 107.209 206.974 105.879 206.105C104.55 205.236 103.527 204.038 102.811 202.513C102.095 200.987 101.737 199.244 101.737 197.284C101.737 195.29 102.104 193.53 102.837 192.004C103.578 190.47 104.61 189.273 105.931 188.412C107.26 187.543 108.811 187.108 110.584 187.108C111.965 187.108 113.209 187.364 114.317 187.875C115.425 188.386 116.333 189.102 117.04 190.023C117.747 190.943 118.186 192.017 118.357 193.244H115.34C115.11 192.349 114.598 191.557 113.806 190.866C113.021 190.168 111.965 189.818 110.635 189.818C109.459 189.818 108.428 190.125 107.541 190.739C106.664 191.344 105.977 192.2 105.483 193.308C104.997 194.408 104.754 195.699 104.754 197.182C104.754 198.699 104.993 200.02 105.47 201.145C105.956 202.27 106.638 203.143 107.516 203.766C108.402 204.388 109.442 204.699 110.635 204.699C111.419 204.699 112.131 204.562 112.77 204.29C113.409 204.017 113.95 203.625 114.394 203.114C114.837 202.602 115.152 201.989 115.34 201.273H118.357C118.186 202.432 117.764 203.476 117.091 204.405C116.426 205.325 115.544 206.058 114.445 206.604C113.354 207.141 112.084 207.409 110.635 207.409ZM128.546 207.46C127.301 207.46 126.172 207.226 125.158 206.757C124.144 206.28 123.338 205.594 122.742 204.699C122.145 203.795 121.847 202.705 121.847 201.426C121.847 200.301 122.068 199.389 122.512 198.69C122.955 197.983 123.547 197.429 124.289 197.028C125.03 196.628 125.848 196.33 126.743 196.134C127.646 195.929 128.554 195.767 129.466 195.648C130.659 195.494 131.627 195.379 132.368 195.303C133.118 195.217 133.664 195.077 134.004 194.881C134.354 194.685 134.529 194.344 134.529 193.858V193.756C134.529 192.494 134.183 191.514 133.493 190.815C132.811 190.116 131.776 189.767 130.387 189.767C128.946 189.767 127.817 190.082 126.999 190.713C126.181 191.344 125.605 192.017 125.273 192.733L122.409 191.71C122.921 190.517 123.602 189.588 124.455 188.923C125.316 188.25 126.253 187.781 127.267 187.517C128.29 187.244 129.296 187.108 130.284 187.108C130.915 187.108 131.639 187.185 132.458 187.338C133.284 187.483 134.081 187.786 134.848 188.246C135.624 188.706 136.267 189.401 136.779 190.33C137.29 191.259 137.546 192.503 137.546 194.062V207H134.529V204.341H134.375C134.171 204.767 133.83 205.223 133.352 205.709C132.875 206.195 132.24 206.608 131.448 206.949C130.655 207.29 129.688 207.46 128.546 207.46ZM129.006 204.75C130.199 204.75 131.205 204.516 132.023 204.047C132.85 203.578 133.472 202.973 133.889 202.232C134.316 201.49 134.529 200.71 134.529 199.892V197.131C134.401 197.284 134.119 197.425 133.685 197.553C133.259 197.672 132.764 197.778 132.202 197.872C131.648 197.957 131.107 198.034 130.578 198.102C130.058 198.162 129.637 198.213 129.313 198.256C128.529 198.358 127.796 198.524 127.114 198.754C126.441 198.976 125.895 199.312 125.477 199.764C125.068 200.207 124.864 200.812 124.864 201.58C124.864 202.628 125.252 203.42 126.027 203.957C126.811 204.486 127.804 204.75 129.006 204.75ZM146.069 180.818V207H143.052V180.818H146.069ZM11.0375 251.409C9.19656 251.409 7.61133 250.974 6.28178 250.105C4.95224 249.236 3.92951 248.038 3.2136 246.513C2.49769 244.987 2.13974 243.244 2.13974 241.284C2.13974 239.29 2.50621 237.53 3.23917 236.004C3.98065 234.47 5.0119 233.273 6.33292 232.412C7.66246 231.543 9.2136 231.108 10.9863 231.108C12.367 231.108 13.6113 231.364 14.7193 231.875C15.8272 232.386 16.7349 233.102 17.4423 234.023C18.1497 234.943 18.5886 236.017 18.7591 237.244H15.742C15.5119 236.349 15.0005 235.557 14.2079 234.866C13.4238 234.168 12.367 233.818 11.0375 233.818C9.86133 233.818 8.83008 234.125 7.94371 234.739C7.06587 235.344 6.37979 236.2 5.88548 237.308C5.39968 238.408 5.15678 239.699 5.15678 241.182C5.15678 242.699 5.39542 244.02 5.87269 245.145C6.35849 246.27 7.04031 247.143 7.91815 247.766C8.80451 248.388 9.84428 248.699 11.0375 248.699C11.8216 248.699 12.5332 248.562 13.1724 248.29C13.8116 248.017 14.3528 247.625 14.796 247.114C15.2392 246.602 15.5545 245.989 15.742 245.273H18.7591C18.5886 246.432 18.1667 247.476 17.4934 248.405C16.8287 249.325 15.9466 250.058 14.8471 250.604C13.7562 251.141 12.4863 251.409 11.0375 251.409ZM31.1468 251.409C29.3741 251.409 27.8187 250.987 26.4806 250.143C25.1511 249.3 24.1113 248.119 23.3613 246.602C22.6199 245.085 22.2491 243.312 22.2491 241.284C22.2491 239.239 22.6199 237.453 23.3613 235.928C24.1113 234.402 25.1511 233.217 26.4806 232.374C27.8187 231.53 29.3741 231.108 31.1468 231.108C32.9196 231.108 34.4707 231.53 35.8002 232.374C37.1383 233.217 38.1781 234.402 38.9196 235.928C39.6696 237.453 40.0446 239.239 40.0446 241.284C40.0446 243.312 39.6696 245.085 38.9196 246.602C38.1781 248.119 37.1383 249.3 35.8002 250.143C34.4707 250.987 32.9196 251.409 31.1468 251.409ZM31.1468 248.699C32.4934 248.699 33.6014 248.354 34.4707 247.663C35.34 246.973 35.9835 246.065 36.4011 244.94C36.8187 243.815 37.0275 242.597 37.0275 241.284C37.0275 239.972 36.8187 238.749 36.4011 237.615C35.9835 236.482 35.34 235.565 34.4707 234.866C33.6014 234.168 32.4934 233.818 31.1468 233.818C29.8002 233.818 28.6923 234.168 27.823 234.866C26.9537 235.565 26.3102 236.482 25.8926 237.615C25.475 238.749 25.2662 239.972 25.2662 241.284C25.2662 242.597 25.475 243.815 25.8926 244.94C26.3102 246.065 26.9537 246.973 27.823 247.663C28.6923 248.354 29.8002 248.699 31.1468 248.699ZM44.65 251V231.364H47.5648V234.432H47.8205C48.2296 233.384 48.8901 232.57 49.802 231.99C50.714 231.402 51.8091 231.108 53.0875 231.108C54.383 231.108 55.4611 231.402 56.3219 231.99C57.1912 232.57 57.8688 233.384 58.3546 234.432H58.5591C59.062 233.418 59.8162 232.612 60.8219 232.016C61.8276 231.411 63.0336 231.108 64.4398 231.108C66.1955 231.108 67.6316 231.658 68.748 232.757C69.8645 233.848 70.4228 235.548 70.4228 237.858V251H67.4057V237.858C67.4057 236.409 67.0094 235.374 66.2168 234.751C65.4242 234.129 64.4909 233.818 63.4171 233.818C62.0364 233.818 60.9668 234.236 60.2083 235.071C59.4498 235.898 59.0705 236.946 59.0705 238.216V251H56.0023V237.551C56.0023 236.435 55.6401 235.536 54.9157 234.854C54.1912 234.163 53.258 233.818 52.1159 233.818C51.3319 233.818 50.5989 234.027 49.9171 234.445C49.2438 234.862 48.6983 235.442 48.2807 236.183C47.8716 236.916 47.6671 237.764 47.6671 238.727V251H44.65ZM75.9391 258.364V231.364H78.8539V234.483H79.2118C79.4334 234.142 79.7402 233.707 80.1323 233.179C80.5328 232.642 81.1039 232.165 81.8453 231.747C82.5953 231.321 83.6096 231.108 84.888 231.108C86.5414 231.108 87.9988 231.521 89.2601 232.348C90.5215 233.175 91.5059 234.347 92.2132 235.864C92.9206 237.381 93.2743 239.17 93.2743 241.233C93.2743 243.312 92.9206 245.115 92.2132 246.641C91.5059 248.158 90.5257 249.334 89.2729 250.169C88.0201 250.996 86.5755 251.409 84.9391 251.409C83.6777 251.409 82.6678 251.2 81.9093 250.783C81.1507 250.357 80.5669 249.875 80.1578 249.338C79.7488 248.793 79.4334 248.341 79.2118 247.983H78.9561V258.364H75.9391ZM78.905 241.182C78.905 242.665 79.1223 243.973 79.557 245.107C79.9917 246.232 80.6266 247.114 81.4618 247.753C82.2971 248.384 83.3198 248.699 84.53 248.699C85.7914 248.699 86.8439 248.366 87.6877 247.702C88.54 247.028 89.1792 246.125 89.6053 244.991C90.04 243.849 90.2573 242.58 90.2573 241.182C90.2573 239.801 90.0442 238.557 89.6181 237.449C89.2005 236.332 88.5655 235.45 87.7132 234.803C86.8695 234.146 85.8084 233.818 84.53 233.818C83.3027 233.818 82.2715 234.129 81.4363 234.751C80.601 235.365 79.9703 236.226 79.5442 237.334C79.1181 238.433 78.905 239.716 78.905 241.182ZM103.655 251.46C102.411 251.46 101.281 251.226 100.267 250.757C99.253 250.28 98.4476 249.594 97.851 248.699C97.2544 247.795 96.9561 246.705 96.9561 245.426C96.9561 244.301 97.1777 243.389 97.6209 242.69C98.0641 241.983 98.6564 241.429 99.3979 241.028C100.139 240.628 100.958 240.33 101.852 240.134C102.756 239.929 103.664 239.767 104.575 239.648C105.769 239.494 106.736 239.379 107.477 239.303C108.227 239.217 108.773 239.077 109.114 238.881C109.463 238.685 109.638 238.344 109.638 237.858V237.756C109.638 236.494 109.293 235.514 108.602 234.815C107.921 234.116 106.885 233.767 105.496 233.767C104.056 233.767 102.926 234.082 102.108 234.713C101.29 235.344 100.715 236.017 100.382 236.733L97.5186 235.71C98.03 234.517 98.7118 233.588 99.5641 232.923C100.425 232.25 101.362 231.781 102.377 231.517C103.399 231.244 104.405 231.108 105.394 231.108C106.024 231.108 106.749 231.185 107.567 231.338C108.394 231.483 109.191 231.786 109.958 232.246C110.733 232.706 111.377 233.401 111.888 234.33C112.399 235.259 112.655 236.503 112.655 238.062V251H109.638V248.341H109.485C109.28 248.767 108.939 249.223 108.462 249.709C107.985 250.195 107.35 250.608 106.557 250.949C105.764 251.29 104.797 251.46 103.655 251.46ZM104.115 248.75C105.308 248.75 106.314 248.516 107.132 248.047C107.959 247.578 108.581 246.973 108.999 246.232C109.425 245.49 109.638 244.71 109.638 243.892V241.131C109.51 241.284 109.229 241.425 108.794 241.553C108.368 241.672 107.874 241.778 107.311 241.872C106.757 241.957 106.216 242.034 105.688 242.102C105.168 242.162 104.746 242.213 104.422 242.256C103.638 242.358 102.905 242.524 102.223 242.754C101.55 242.976 101.004 243.312 100.587 243.764C100.178 244.207 99.9732 244.812 99.9732 245.58C99.9732 246.628 100.361 247.42 101.137 247.957C101.921 248.486 102.914 248.75 104.115 248.75ZM126.088 258.773C124.631 258.773 123.378 258.585 122.329 258.21C121.281 257.844 120.407 257.358 119.709 256.753C119.018 256.156 118.469 255.517 118.059 254.835L120.463 253.148C120.736 253.506 121.081 253.915 121.498 254.375C121.916 254.844 122.487 255.249 123.211 255.589C123.944 255.939 124.903 256.114 126.088 256.114C127.673 256.114 128.981 255.73 130.013 254.963C131.044 254.196 131.559 252.994 131.559 251.358V247.369H131.304C131.082 247.727 130.767 248.17 130.358 248.699C129.957 249.219 129.378 249.683 128.619 250.092C127.869 250.493 126.855 250.693 125.577 250.693C123.991 250.693 122.568 250.318 121.307 249.568C120.054 248.818 119.061 247.727 118.328 246.295C117.604 244.864 117.241 243.125 117.241 241.08C117.241 239.068 117.595 237.317 118.302 235.825C119.01 234.325 119.994 233.166 121.256 232.348C122.517 231.521 123.974 231.108 125.628 231.108C126.906 231.108 127.92 231.321 128.67 231.747C129.429 232.165 130.008 232.642 130.409 233.179C130.818 233.707 131.133 234.142 131.355 234.483H131.662V231.364H134.577V251.562C134.577 253.25 134.193 254.622 133.426 255.679C132.667 256.744 131.645 257.524 130.358 258.018C129.079 258.521 127.656 258.773 126.088 258.773ZM125.986 247.983C127.196 247.983 128.219 247.706 129.054 247.152C129.889 246.598 130.524 245.801 130.959 244.761C131.393 243.722 131.611 242.477 131.611 241.028C131.611 239.614 131.398 238.365 130.971 237.283C130.545 236.2 129.915 235.352 129.079 234.739C128.244 234.125 127.213 233.818 125.986 233.818C124.707 233.818 123.642 234.142 122.79 234.79C121.946 235.437 121.311 236.307 120.885 237.398C120.467 238.489 120.258 239.699 120.258 241.028C120.258 242.392 120.471 243.598 120.898 244.646C121.332 245.686 121.971 246.504 122.815 247.101C123.667 247.689 124.724 247.983 125.986 247.983ZM143.116 239.188V251H140.099V231.364H143.014V234.432H143.27C143.73 233.435 144.429 232.634 145.366 232.028C146.304 231.415 147.514 231.108 148.997 231.108C150.327 231.108 151.49 231.381 152.487 231.926C153.484 232.463 154.26 233.281 154.814 234.381C155.368 235.472 155.645 236.852 155.645 238.523V251H152.628V238.727C152.628 237.185 152.227 235.983 151.426 235.122C150.625 234.253 149.525 233.818 148.128 233.818C147.165 233.818 146.304 234.027 145.545 234.445C144.795 234.862 144.203 235.472 143.768 236.273C143.334 237.074 143.116 238.045 143.116 239.188ZM161.158 251V231.364H164.175V251H161.158ZM162.692 228.091C162.104 228.091 161.597 227.891 161.171 227.49C160.753 227.089 160.544 226.608 160.544 226.045C160.544 225.483 160.753 225.001 161.171 224.601C161.597 224.2 162.104 224 162.692 224C163.28 224 163.783 224.2 164.2 224.601C164.627 225.001 164.84 225.483 164.84 226.045C164.84 226.608 164.627 227.089 164.2 227.49C163.783 227.891 163.28 228.091 162.692 228.091ZM177.934 251.409C176.042 251.409 174.41 250.991 173.037 250.156C171.674 249.312 170.621 248.136 169.88 246.628C169.147 245.111 168.78 243.347 168.78 241.335C168.78 239.324 169.147 237.551 169.88 236.017C170.621 234.474 171.653 233.273 172.974 232.412C174.303 231.543 175.854 231.108 177.627 231.108C178.65 231.108 179.66 231.278 180.657 231.619C181.654 231.96 182.562 232.514 183.38 233.281C184.198 234.04 184.85 235.045 185.336 236.298C185.822 237.551 186.064 239.094 186.064 240.926V242.205H170.928V239.597H182.996C182.996 238.489 182.775 237.5 182.331 236.631C181.897 235.761 181.275 235.075 180.465 234.572C179.664 234.07 178.718 233.818 177.627 233.818C176.425 233.818 175.385 234.116 174.508 234.713C173.638 235.301 172.969 236.068 172.501 237.014C172.032 237.96 171.797 238.974 171.797 240.057V241.795C171.797 243.278 172.053 244.536 172.564 245.567C173.084 246.589 173.805 247.369 174.725 247.906C175.645 248.435 176.715 248.699 177.934 248.699C178.726 248.699 179.442 248.588 180.081 248.366C180.729 248.136 181.287 247.795 181.756 247.344C182.225 246.884 182.587 246.312 182.843 245.631L185.758 246.449C185.451 247.438 184.935 248.307 184.211 249.057C183.486 249.798 182.591 250.378 181.526 250.795C180.461 251.205 179.263 251.409 177.934 251.409ZM204.563 235.761L201.853 236.528C201.682 236.077 201.431 235.638 201.099 235.212C200.775 234.777 200.331 234.419 199.769 234.138C199.206 233.857 198.486 233.716 197.608 233.716C196.407 233.716 195.405 233.993 194.604 234.547C193.812 235.092 193.415 235.787 193.415 236.631C193.415 237.381 193.688 237.973 194.233 238.408C194.779 238.842 195.631 239.205 196.79 239.494L199.705 240.21C201.461 240.636 202.769 241.288 203.63 242.166C204.491 243.036 204.921 244.156 204.921 245.528C204.921 246.653 204.597 247.659 203.949 248.545C203.31 249.432 202.415 250.131 201.265 250.642C200.114 251.153 198.776 251.409 197.251 251.409C195.248 251.409 193.59 250.974 192.278 250.105C190.965 249.236 190.134 247.966 189.785 246.295L192.648 245.58C192.921 246.636 193.437 247.429 194.195 247.957C194.962 248.486 195.964 248.75 197.199 248.75C198.606 248.75 199.722 248.452 200.549 247.855C201.384 247.25 201.802 246.526 201.802 245.682C201.802 245 201.563 244.429 201.086 243.969C200.608 243.5 199.876 243.151 198.887 242.92L195.614 242.153C193.816 241.727 192.495 241.067 191.651 240.172C190.816 239.268 190.398 238.139 190.398 236.784C190.398 235.676 190.709 234.696 191.331 233.844C191.962 232.991 192.819 232.322 193.901 231.837C194.992 231.351 196.228 231.108 197.608 231.108C199.552 231.108 201.077 231.534 202.185 232.386C203.302 233.239 204.094 234.364 204.563 235.761Z" fill="#F9A826"/>
</svg>
