<svg width="153" height="260" viewBox="0 0 153 260" fill="none" xmlns="http://www.w3.org/2000/svg">
<circle cx="76.5" cy="73.5" r="71.5" fill="white" stroke="#FF9900" stroke-width="4"/>
<path d="M34.3365 207V180.818H37.5069V204.188H49.6774V207H34.3365ZM62.1547 207.409C60.3819 207.409 58.8265 206.987 57.4885 206.143C56.1589 205.3 55.1191 204.119 54.3691 202.602C53.6277 201.085 53.2569 199.312 53.2569 197.284C53.2569 195.239 53.6277 193.453 54.3691 191.928C55.1191 190.402 56.1589 189.217 57.4885 188.374C58.8265 187.53 60.3819 187.108 62.1547 187.108C63.9274 187.108 65.4785 187.53 66.8081 188.374C68.1461 189.217 69.1859 190.402 69.9274 191.928C70.6774 193.453 71.0524 195.239 71.0524 197.284C71.0524 199.312 70.6774 201.085 69.9274 202.602C69.1859 204.119 68.1461 205.3 66.8081 206.143C65.4785 206.987 63.9274 207.409 62.1547 207.409ZM62.1547 204.699C63.5012 204.699 64.6092 204.354 65.4785 203.663C66.3478 202.973 66.9913 202.065 67.4089 200.94C67.8265 199.815 68.0353 198.597 68.0353 197.284C68.0353 195.972 67.8265 194.749 67.4089 193.615C66.9913 192.482 66.3478 191.565 65.4785 190.866C64.6092 190.168 63.5012 189.818 62.1547 189.818C60.8081 189.818 59.7001 190.168 58.8308 190.866C57.9615 191.565 57.318 192.482 56.9004 193.615C56.4828 194.749 56.274 195.972 56.274 197.284C56.274 198.597 56.4828 199.815 56.9004 200.94C57.318 202.065 57.9615 202.973 58.8308 203.663C59.7001 204.354 60.8081 204.699 62.1547 204.699ZM83.6351 207.409C81.7942 207.409 80.209 206.974 78.8794 206.105C77.5499 205.236 76.5272 204.038 75.8113 202.513C75.0953 200.987 74.7374 199.244 74.7374 197.284C74.7374 195.29 75.1039 193.53 75.8368 192.004C76.5783 190.47 77.6096 189.273 78.9306 188.412C80.2601 187.543 81.8113 187.108 83.584 187.108C84.9647 187.108 86.209 187.364 87.3169 187.875C88.4249 188.386 89.3326 189.102 90.04 190.023C90.7473 190.943 91.1863 192.017 91.3567 193.244H88.3397C88.1096 192.349 87.5982 191.557 86.8056 190.866C86.0215 190.168 84.9647 189.818 83.6351 189.818C82.459 189.818 81.4277 190.125 80.5414 190.739C79.6635 191.344 78.9775 192.2 78.4831 193.308C77.9973 194.408 77.7544 195.699 77.7544 197.182C77.7544 198.699 77.9931 200.02 78.4703 201.145C78.9561 202.27 79.638 203.143 80.5158 203.766C81.4022 204.388 82.4419 204.699 83.6351 204.699C84.4192 204.699 85.1309 204.562 85.7701 204.29C86.4093 204.017 86.9505 203.625 87.3936 203.114C87.8368 202.602 88.1522 201.989 88.3397 201.273H91.3567C91.1863 202.432 90.7644 203.476 90.0911 204.405C89.4263 205.325 88.5442 206.058 87.4448 206.604C86.3539 207.141 85.084 207.409 83.6351 207.409ZM101.546 207.46C100.301 207.46 99.1721 207.226 98.1578 206.757C97.1436 206.28 96.3382 205.594 95.7417 204.699C95.1451 203.795 94.8468 202.705 94.8468 201.426C94.8468 200.301 95.0684 199.389 95.5115 198.69C95.9547 197.983 96.5471 197.429 97.2885 197.028C98.03 196.628 98.8482 196.33 99.7431 196.134C100.646 195.929 101.554 195.767 102.466 195.648C103.659 195.494 104.627 195.379 105.368 195.303C106.118 195.217 106.664 195.077 107.004 194.881C107.354 194.685 107.529 194.344 107.529 193.858V193.756C107.529 192.494 107.183 191.514 106.493 190.815C105.811 190.116 104.776 189.767 103.387 189.767C101.946 189.767 100.817 190.082 99.9988 190.713C99.1806 191.344 98.6053 192.017 98.2729 192.733L95.4093 191.71C95.9206 190.517 96.6025 189.588 97.4547 188.923C98.3155 188.25 99.253 187.781 100.267 187.517C101.29 187.244 102.296 187.108 103.284 187.108C103.915 187.108 104.639 187.185 105.458 187.338C106.284 187.483 107.081 187.786 107.848 188.246C108.624 188.706 109.267 189.401 109.779 190.33C110.29 191.259 110.546 192.503 110.546 194.062V207H107.529V204.341H107.375C107.171 204.767 106.83 205.223 106.352 205.709C105.875 206.195 105.24 206.608 104.448 206.949C103.655 207.29 102.688 207.46 101.546 207.46ZM102.006 204.75C103.199 204.75 104.205 204.516 105.023 204.047C105.85 203.578 106.472 202.973 106.889 202.232C107.316 201.49 107.529 200.71 107.529 199.892V197.131C107.401 197.284 107.119 197.425 106.685 197.553C106.259 197.672 105.764 197.778 105.202 197.872C104.648 197.957 104.107 198.034 103.578 198.102C103.058 198.162 102.637 198.213 102.313 198.256C101.529 198.358 100.796 198.524 100.114 198.754C99.4405 198.976 98.8951 199.312 98.4775 199.764C98.0684 200.207 97.8638 200.812 97.8638 201.58C97.8638 202.628 98.2516 203.42 99.0272 203.957C99.8113 204.486 100.804 204.75 102.006 204.75ZM119.069 180.818V207H116.052V180.818H119.069ZM8.71555 251.46C7.47124 251.46 6.34197 251.226 5.32777 250.757C4.31357 250.28 3.50817 249.594 2.91158 248.699C2.31499 247.795 2.01669 246.705 2.01669 245.426C2.01669 244.301 2.23828 243.389 2.68146 242.69C3.12465 241.983 3.71697 241.429 4.45845 241.028C5.19993 240.628 6.01811 240.33 6.913 240.134C7.81641 239.929 8.72408 239.767 9.63601 239.648C10.8292 239.494 11.7965 239.379 12.538 239.303C13.288 239.217 13.8335 239.077 14.1744 238.881C14.5238 238.685 14.6985 238.344 14.6985 237.858V237.756C14.6985 236.494 14.3533 235.514 13.663 234.815C12.9812 234.116 11.9457 233.767 10.5565 233.767C9.11612 233.767 7.98686 234.082 7.16868 234.713C6.3505 235.344 5.77521 236.017 5.44283 236.733L2.57919 235.71C3.09055 234.517 3.77237 233.588 4.62464 232.923C5.48544 232.25 6.42294 231.781 7.43714 231.517C8.45987 231.244 9.46555 231.108 10.4542 231.108C11.0849 231.108 11.8093 231.185 12.6275 231.338C13.4542 231.483 14.2511 231.786 15.0181 232.246C15.7937 232.706 16.4371 233.401 16.9485 234.33C17.4599 235.259 17.7156 236.503 17.7156 238.062V251H14.6985V248.341H14.5451C14.3406 248.767 13.9996 249.223 13.5224 249.709C13.0451 250.195 12.4102 250.608 11.6175 250.949C10.8249 251.29 9.8576 251.46 8.71555 251.46ZM9.17578 248.75C10.369 248.75 11.3746 248.516 12.1928 248.047C13.0195 247.578 13.6417 246.973 14.0593 246.232C14.4854 245.49 14.6985 244.71 14.6985 243.892V241.131C14.5707 241.284 14.2894 241.425 13.8548 241.553C13.4286 241.672 12.9343 241.778 12.3718 241.872C11.8178 241.957 11.2766 242.034 10.7482 242.102C10.2283 242.162 9.80646 242.213 9.4826 242.256C8.69851 242.358 7.96555 242.524 7.28374 242.754C6.61044 242.976 6.06499 243.312 5.64737 243.764C5.23828 244.207 5.03374 244.812 5.03374 245.58C5.03374 246.628 5.42152 247.42 6.19709 247.957C6.98118 248.486 7.97408 248.75 9.17578 248.75ZM31.1484 258.773C29.6911 258.773 28.4382 258.585 27.3899 258.21C26.3416 257.844 25.468 257.358 24.7692 256.753C24.0788 256.156 23.5291 255.517 23.12 254.835L25.5234 253.148C25.7962 253.506 26.1413 253.915 26.5589 254.375C26.9766 254.844 27.5476 255.249 28.272 255.589C29.005 255.939 29.9638 256.114 31.1484 256.114C32.7337 256.114 34.0419 255.73 35.0732 254.963C36.1044 254.196 36.62 252.994 36.62 251.358V247.369H36.3643C36.1428 247.727 35.8274 248.17 35.4183 248.699C35.0178 249.219 34.4382 249.683 33.6797 250.092C32.9297 250.493 31.9155 250.693 30.6371 250.693C29.0518 250.693 27.6286 250.318 26.3672 249.568C25.1143 248.818 24.1214 247.727 23.3885 246.295C22.6641 244.864 22.3018 243.125 22.3018 241.08C22.3018 239.068 22.6555 237.317 23.3629 235.825C24.0703 234.325 25.0547 233.166 26.3161 232.348C27.5774 231.521 29.0348 231.108 30.6882 231.108C31.9666 231.108 32.9808 231.321 33.7308 231.747C34.4893 232.165 35.0689 232.642 35.4695 233.179C35.8786 233.707 36.1939 234.142 36.4155 234.483H36.7223V231.364H39.6371V251.562C39.6371 253.25 39.2536 254.622 38.4865 255.679C37.728 256.744 36.7053 257.524 35.4183 258.018C34.1399 258.521 32.7166 258.773 31.1484 258.773ZM31.0462 247.983C32.2564 247.983 33.2791 247.706 34.1143 247.152C34.9496 246.598 35.5845 245.801 36.0192 244.761C36.4538 243.722 36.6712 242.477 36.6712 241.028C36.6712 239.614 36.4581 238.365 36.032 237.283C35.6058 236.2 34.9751 235.352 34.1399 234.739C33.3047 234.125 32.2734 233.818 31.0462 233.818C29.7678 233.818 28.7024 234.142 27.8501 234.79C27.0064 235.437 26.3714 236.307 25.9453 237.398C25.5277 238.489 25.3189 239.699 25.3189 241.028C25.3189 242.392 25.532 243.598 25.9581 244.646C26.3928 245.686 27.032 246.504 27.8757 247.101C28.728 247.689 29.7848 247.983 31.0462 247.983ZM53.3928 251.409C51.5007 251.409 49.8686 250.991 48.4964 250.156C47.1328 249.312 46.0803 248.136 45.3388 246.628C44.6058 245.111 44.2393 243.347 44.2393 241.335C44.2393 239.324 44.6058 237.551 45.3388 236.017C46.0803 234.474 47.1115 233.273 48.4325 232.412C49.7621 231.543 51.3132 231.108 53.0859 231.108C54.1087 231.108 55.1186 231.278 56.1158 231.619C57.1129 231.96 58.0206 232.514 58.8388 233.281C59.657 234.04 60.3089 235.045 60.7947 236.298C61.2805 237.551 61.5234 239.094 61.5234 240.926V242.205H46.3871V239.597H58.4553C58.4553 238.489 58.2337 237.5 57.7905 236.631C57.3558 235.761 56.7337 235.075 55.924 234.572C55.1229 234.07 54.1768 233.818 53.0859 233.818C51.8842 233.818 50.8445 234.116 49.9666 234.713C49.0973 235.301 48.4283 236.068 47.9595 237.014C47.4908 237.96 47.2564 238.974 47.2564 240.057V241.795C47.2564 243.278 47.5121 244.536 48.0234 245.567C48.5433 246.589 49.2635 247.369 50.1839 247.906C51.1044 248.435 52.174 248.699 53.3928 248.699C54.1854 248.699 54.9013 248.588 55.5405 248.366C56.1882 248.136 56.7464 247.795 57.2152 247.344C57.6839 246.884 58.0462 246.312 58.3018 245.631L61.2166 246.449C60.9098 247.438 60.3942 248.307 59.6697 249.057C58.9453 249.798 58.0504 250.378 56.9851 250.795C55.9197 251.205 54.7223 251.409 53.3928 251.409ZM69.13 239.188V251H66.1129V231.364H69.0277V234.432H69.2834C69.7436 233.435 70.4425 232.634 71.38 232.028C72.3175 231.415 73.5277 231.108 75.0107 231.108C76.3402 231.108 77.5036 231.381 78.5007 231.926C79.4979 232.463 80.2734 233.281 80.8274 234.381C81.3814 235.472 81.6584 236.852 81.6584 238.523V251H78.6413V238.727C78.6413 237.185 78.2408 235.983 77.4396 235.122C76.6385 234.253 75.5391 233.818 74.1413 233.818C73.1783 233.818 72.3175 234.027 71.5589 234.445C70.8089 234.862 70.2166 235.472 69.782 236.273C69.3473 237.074 69.13 238.045 69.13 239.188ZM95.1488 251.409C93.3079 251.409 91.7227 250.974 90.3931 250.105C89.0636 249.236 88.0408 248.038 87.3249 246.513C86.609 244.987 86.2511 243.244 86.2511 241.284C86.2511 239.29 86.6175 237.53 87.3505 236.004C88.092 234.47 89.1232 233.273 90.4442 232.412C91.7738 231.543 93.3249 231.108 95.0977 231.108C96.4783 231.108 97.7227 231.364 98.8306 231.875C99.9386 232.386 100.846 233.102 101.554 234.023C102.261 234.943 102.7 236.017 102.87 237.244H99.8533C99.6232 236.349 99.1119 235.557 98.3192 234.866C97.5352 234.168 96.4783 233.818 95.1488 233.818C93.9727 233.818 92.9414 234.125 92.055 234.739C91.1772 235.344 90.4911 236.2 89.9968 237.308C89.511 238.408 89.2681 239.699 89.2681 241.182C89.2681 242.699 89.5067 244.02 89.984 245.145C90.4698 246.27 91.1516 247.143 92.0295 247.766C92.9158 248.388 93.9556 248.699 95.1488 248.699C95.9329 248.699 96.6445 248.562 97.2837 248.29C97.9229 248.017 98.4641 247.625 98.9073 247.114C99.3505 246.602 99.6658 245.989 99.8533 245.273H102.87C102.7 246.432 102.278 247.476 101.605 248.405C100.94 249.325 100.058 250.058 98.9585 250.604C97.8675 251.141 96.5977 251.409 95.1488 251.409ZM107.281 251V231.364H110.298V251H107.281ZM108.815 228.091C108.227 228.091 107.72 227.891 107.294 227.49C106.876 227.089 106.667 226.608 106.667 226.045C106.667 225.483 106.876 225.001 107.294 224.601C107.72 224.2 108.227 224 108.815 224C109.403 224 109.906 224.2 110.324 224.601C110.75 225.001 110.963 225.483 110.963 226.045C110.963 226.608 110.75 227.089 110.324 227.49C109.906 227.891 109.403 228.091 108.815 228.091ZM124.057 251.409C122.165 251.409 120.533 250.991 119.161 250.156C117.797 249.312 116.744 248.136 116.003 246.628C115.27 245.111 114.903 243.347 114.903 241.335C114.903 239.324 115.27 237.551 116.003 236.017C116.744 234.474 117.776 233.273 119.097 232.412C120.426 231.543 121.977 231.108 123.75 231.108C124.773 231.108 125.783 231.278 126.78 231.619C127.777 231.96 128.685 232.514 129.503 233.281C130.321 234.04 130.973 235.045 131.459 236.298C131.945 237.551 132.188 239.094 132.188 240.926V242.205H117.051V239.597H129.119C129.119 238.489 128.898 237.5 128.455 236.631C128.02 235.761 127.398 235.075 126.588 234.572C125.787 234.07 124.841 233.818 123.75 233.818C122.548 233.818 121.509 234.116 120.631 234.713C119.761 235.301 119.092 236.068 118.624 237.014C118.155 237.96 117.92 238.974 117.92 240.057V241.795C117.92 243.278 118.176 244.536 118.688 245.567C119.207 246.589 119.928 247.369 120.848 247.906C121.768 248.435 122.838 248.699 124.057 248.699C124.849 248.699 125.565 248.588 126.205 248.366C126.852 248.136 127.411 247.795 127.879 247.344C128.348 246.884 128.71 246.312 128.966 245.631L131.881 246.449C131.574 247.438 131.058 248.307 130.334 249.057C129.609 249.798 128.714 250.378 127.649 250.795C126.584 251.205 125.386 251.409 124.057 251.409ZM150.686 235.761L147.976 236.528C147.805 236.077 147.554 235.638 147.222 235.212C146.898 234.777 146.455 234.419 145.892 234.138C145.33 233.857 144.609 233.716 143.732 233.716C142.53 233.716 141.528 233.993 140.727 234.547C139.935 235.092 139.538 235.787 139.538 236.631C139.538 237.381 139.811 237.973 140.357 238.408C140.902 238.842 141.754 239.205 142.913 239.494L145.828 240.21C147.584 240.636 148.892 241.288 149.753 242.166C150.614 243.036 151.044 244.156 151.044 245.528C151.044 246.653 150.72 247.659 150.072 248.545C149.433 249.432 148.538 250.131 147.388 250.642C146.237 251.153 144.899 251.409 143.374 251.409C141.371 251.409 139.713 250.974 138.401 250.105C137.088 249.236 136.257 247.966 135.908 246.295L138.771 245.58C139.044 246.636 139.56 247.429 140.318 247.957C141.085 248.486 142.087 248.75 143.322 248.75C144.729 248.75 145.845 248.452 146.672 247.855C147.507 247.25 147.925 246.526 147.925 245.682C147.925 245 147.686 244.429 147.209 243.969C146.732 243.5 145.999 243.151 145.01 242.92L141.737 242.153C139.939 241.727 138.618 241.067 137.774 240.172C136.939 239.268 136.521 238.139 136.521 236.784C136.521 235.676 136.832 234.696 137.455 233.844C138.085 232.991 138.942 232.322 140.024 231.837C141.115 231.351 142.351 231.108 143.732 231.108C145.675 231.108 147.2 231.534 148.308 232.386C149.425 233.239 150.217 234.364 150.686 235.761Z" fill="#FF9900"/>
<path d="M81.5625 102.875V77.5625C81.5625 76.8912 81.8291 76.2473 82.3038 75.7726C82.7785 75.2979 83.4224 75.0312 84.0937 75.0312H94.2187C94.89 75.0312 95.5339 75.2979 96.0086 75.7726C96.4833 76.2473 96.75 76.8912 96.75 77.5625V102.875M81.5625 102.875H43.965M81.5625 102.875H96.75M96.75 102.875H109.035M104.344 102.875V63.5529C105.689 62.7763 106.838 61.7006 107.7 60.4091C108.563 59.1176 109.118 57.6448 109.32 56.1048C109.523 54.5647 109.368 52.9987 108.869 51.5279C108.369 50.0571 107.538 48.721 106.44 47.6229L102.423 43.61C101.475 42.6603 100.188 42.1262 98.8458 42.125H54.1507C52.8085 42.1262 51.5217 42.6603 50.5732 43.61L46.5603 47.6195C45.4643 48.7189 44.6353 50.0553 44.1373 51.5256C43.6393 52.996 43.4857 54.5611 43.6882 56.1003C43.8907 57.6394 44.4439 59.1115 45.3053 60.403C46.1666 61.6946 47.3131 62.7711 48.6562 63.5495M48.6562 102.872V63.5563C50.6813 64.7239 53.0479 65.1552 55.3547 64.7769C57.6615 64.3986 59.7664 63.234 61.3125 61.4806C62.2618 62.5588 63.4303 63.422 64.7397 64.0127C66.0492 64.6034 67.4696 64.9081 68.9062 64.9062C71.9302 64.9062 74.6437 63.5799 76.5 61.4773C77.449 62.556 78.6173 63.4199 79.9268 64.0112C81.2363 64.6025 82.6569 64.9076 84.0937 64.9062C87.1177 64.9062 89.8312 63.5799 91.6875 61.4773C93.2339 63.2301 95.339 64.394 97.6458 64.7717C99.9526 65.1494 102.319 64.7176 104.344 63.5495M58.7812 92.7466H71.4375C72.1088 92.7466 72.7526 92.4799 73.2273 92.0052C73.702 91.5305 73.9687 90.8867 73.9687 90.2154V77.5625C73.9687 76.8912 73.702 76.2473 73.2273 75.7726C72.7526 75.2979 72.1088 75.0312 71.4375 75.0312H58.7812C58.1099 75.0312 57.466 75.2979 56.9913 75.7726C56.5166 76.2473 56.25 76.8912 56.25 77.5625V90.2188C56.25 91.6194 57.384 92.7466 58.7812 92.7466Z" stroke="#FF9900" stroke-width="3" stroke-linecap="round" stroke-linejoin="round"/>
</svg>
