<svg width="901" height="535" viewBox="0 0 901 535" fill="none" xmlns="http://www.w3.org/2000/svg">
<path d="M791.831 342.106C415.102 555.471 181.3 376.955 31.6364 268.527C22.3753 261.694 6.63456 270.125 20.2918 288.793C70.1524 360.74 233.556 534.153 446.845 534.153C660.281 534.153 787.256 395.559 803.14 371.382C818.916 347.41 807.772 334.186 791.827 342.106H791.831ZM897.634 272.57C887.518 256.893 836.118 253.97 803.77 258.699C771.372 263.291 722.743 286.855 726.971 301.003C729.14 306.303 733.568 303.926 755.825 301.544C778.142 298.894 840.661 289.505 853.688 309.771C866.776 330.177 833.748 427.387 827.716 443.065C821.888 458.743 829.942 462.786 840.89 452.344C851.687 441.906 871.233 414.875 884.349 376.622C897.377 338.161 905.32 284.507 897.631 272.57H897.634Z" fill="#FF9900"/>
<path d="M791.831 342.106C415.102 555.471 181.3 376.955 31.6364 268.527C22.3753 261.694 6.63456 270.125 20.2918 288.793C70.1524 360.74 233.556 534.153 446.845 534.153C660.281 534.153 787.256 395.559 803.14 371.382C818.916 347.41 807.772 334.186 791.827 342.106H791.831ZM897.634 272.57C887.518 256.893 836.118 253.97 803.77 258.699C771.372 263.291 722.743 286.855 726.971 301.003C729.14 306.303 733.568 303.926 755.825 301.544C778.142 298.894 840.661 289.505 853.688 309.771C866.776 330.177 833.748 427.387 827.716 443.065C821.888 458.743 829.942 462.786 840.89 452.344C851.687 441.906 871.233 414.875 884.349 376.622C897.377 338.161 905.32 284.507 897.631 272.57H897.634Z" fill="#FF9900"/>
<path d="M48.4464 234.639C24.03 261.149 109.946 323.639 109.946 323.639L97.9465 378.138C97.9465 378.138 -33.0536 260.139 7.94643 234.639C48.9464 209.139 363.947 146.138 413.947 122.638C463.947 99.1383 441.947 64.6384 372.947 12.6383C303.947 -39.3619 556.446 84.1384 553.946 111.639C551.446 139.139 72.8629 208.128 48.4464 234.639Z" fill="#FF9900"/>
<path d="M112.185 360.638C108.94 360.642 105.829 362.1 103.535 364.692C101.241 367.285 99.9502 370.799 99.9465 374.465V406.812C99.9502 410.477 101.241 413.992 103.535 416.584C105.829 419.176 108.94 420.634 112.185 420.638H127.708C130.953 420.634 134.064 419.176 136.358 416.584C138.652 413.992 139.943 410.477 139.947 406.812V374.465C139.943 370.799 138.652 367.285 136.358 364.692C134.064 362.1 130.953 360.642 127.708 360.638H112.185Z" fill="#3F3D56"/>
<path d="M398.041 421.638H382.852C379.431 421.634 376.15 420.041 373.731 417.209C371.311 414.377 369.95 410.537 369.947 406.532V373.744C369.95 369.739 371.311 365.9 373.731 363.068C376.15 360.236 379.431 358.643 382.852 358.638H398.041C401.462 358.643 404.743 360.236 407.162 363.068C409.582 365.9 410.943 369.739 410.947 373.744V406.532C410.943 410.537 409.582 414.377 407.162 417.209C404.743 420.041 401.462 421.634 398.041 421.638Z" fill="#3F3D56"/>
<path d="M388.915 395.638H121.978C109.83 395.638 99.9465 387.441 99.9465 377.364V318.61L113.196 302.638H400.274L410.947 318.643V377.364C410.947 387.441 401.063 395.638 388.915 395.638Z" fill="#413F3F"/>
<path d="M399.058 331.638H114.835L111.947 280.929L113.784 275.74L124.468 245.638H387.501L401.947 279.821L399.058 331.638Z" fill="#413F3F"/>
<path d="M400.947 279.91L398.815 318.638H335.947V289.868L399.159 275.638L400.947 279.91Z" fill="white"/>
<path d="M175.947 289.719V318.638H114.067L111.947 280.821L113.752 275.638L175.947 289.719Z" fill="white"/>
<path d="M384.947 254.638H125.947L153.571 148.736C154.697 144.362 157.018 140.521 160.188 137.781C163.359 135.04 167.213 133.546 171.179 133.518L342.706 131.639C346.85 131.593 350.889 133.143 354.179 136.043C357.468 138.943 359.819 143.025 360.858 147.64L384.947 254.638Z" fill="#413F3F"/>
<path d="M365.152 244.638L145.699 241.629C145.421 241.626 145.149 241.547 144.902 241.399C144.656 241.251 144.443 241.038 144.281 240.778C144.119 240.518 144.012 240.217 143.968 239.9C143.925 239.583 143.946 239.259 144.031 238.954L165.069 163.063C165.184 162.649 165.409 162.288 165.713 162.032C166.016 161.776 166.382 161.638 166.758 161.638H343.269C343.644 161.638 344.01 161.776 344.314 162.032C344.617 162.288 344.842 162.648 344.957 163.062L366.862 241.961C366.948 242.271 366.969 242.599 366.923 242.92C366.878 243.241 366.767 243.544 366.6 243.806C366.433 244.067 366.215 244.279 365.963 244.424C365.711 244.568 365.433 244.642 365.152 244.638Z" fill="white"/>
<path d="M284.612 144.638H225.281C224.781 144.638 224.327 144.064 224.097 143.138C223.868 142.191 223.901 141.183 224.192 140.258L229.084 125.814C229.334 125.078 229.741 124.638 230.173 124.638H279.72C280.152 124.638 280.559 125.078 280.809 125.814L285.701 140.258C285.992 141.183 286.025 142.191 285.796 143.138C285.566 144.064 285.112 144.638 284.612 144.638Z" fill="#F9A826"/>
<path d="M125.947 252.638H86.9465V242.725C86.9496 239.521 88.0519 236.448 90.0114 234.182C91.9709 231.916 94.6277 230.642 97.3988 230.638H125.947V252.638Z" fill="#413F3F"/>
<path d="M423.947 252.638H384.947V230.638H413.494C416.265 230.642 418.922 231.916 420.882 234.182C422.841 236.448 423.943 239.521 423.947 242.725V252.638Z" fill="#413F3F"/>
</svg>
