<svg width="147" height="269" viewBox="0 0 147 269" fill="none" xmlns="http://www.w3.org/2000/svg">
<circle cx="73.5" cy="73.5" r="71.5" stroke="#F9A826" stroke-width="4"/>
<path d="M84.875 66.8125C84.875 69.8293 83.6766 72.7226 81.5433 74.8558C79.4101 76.9891 76.5168 78.1875 73.5 78.1875C70.4832 78.1875 67.5899 76.9891 65.4567 74.8558C63.3234 72.7226 62.125 69.8293 62.125 66.8125C62.125 63.7957 63.3234 60.9024 65.4567 58.7692C67.5899 56.6359 70.4832 55.4375 73.5 55.4375C76.5168 55.4375 79.4101 56.6359 81.5433 58.7692C83.6766 60.9024 84.875 63.7957 84.875 66.8125V66.8125Z" stroke="#F9A826" stroke-width="3" stroke-linecap="round" stroke-linejoin="round"/>
<path d="M101.938 66.8125C101.938 93.8926 73.5 109.469 73.5 109.469C73.5 109.469 45.0625 93.8926 45.0625 66.8125C45.0625 59.2704 48.0586 52.0372 53.3917 46.7042C58.7247 41.3711 65.9579 38.375 73.5 38.375C81.0421 38.375 88.2753 41.3711 93.6084 46.7042C98.9414 52.0372 101.938 59.2704 101.938 66.8125V66.8125Z" stroke="#F9A826" stroke-width="3" stroke-linecap="round" stroke-linejoin="round"/>
<path d="M46.1996 196.364C46.0462 195.068 45.424 194.062 44.3331 193.347C43.2422 192.631 41.9041 192.273 40.3189 192.273C39.1598 192.273 38.1456 192.46 37.2763 192.835C36.4155 193.21 35.7422 193.726 35.2564 194.382C34.7791 195.038 34.5405 195.784 34.5405 196.619C34.5405 197.318 34.7067 197.919 35.0391 198.422C35.38 198.916 35.8146 199.33 36.343 199.662C36.8714 199.986 37.4254 200.254 38.005 200.467C38.5845 200.672 39.1172 200.838 39.603 200.966L42.2621 201.682C42.9439 201.861 43.7024 202.108 44.5376 202.423C45.3814 202.739 46.1868 203.169 46.9538 203.714C47.7294 204.251 48.3686 204.942 48.8715 205.786C49.3743 206.629 49.6257 207.665 49.6257 208.892C49.6257 210.307 49.255 211.585 48.5135 212.727C47.7805 213.869 46.7067 214.777 45.2919 215.45C43.8857 216.124 42.1768 216.46 40.1655 216.46C38.2905 216.46 36.6669 216.158 35.2947 215.553C33.9311 214.947 32.8572 214.104 32.0732 213.021C31.2976 211.939 30.8587 210.682 30.7564 209.25H34.0291C34.1143 210.239 34.4467 211.057 35.0263 211.705C35.6143 212.344 36.3558 212.821 37.2507 213.136C38.1541 213.443 39.1257 213.597 40.1655 213.597C41.3757 213.597 42.4624 213.401 43.4254 213.009C44.3885 212.608 45.1513 212.054 45.7138 211.347C46.2763 210.631 46.5575 209.795 46.5575 208.841C46.5575 207.972 46.3146 207.264 45.8288 206.719C45.343 206.173 44.7038 205.73 43.9112 205.389C43.1186 205.048 42.2621 204.75 41.3416 204.494L38.12 203.574C36.0746 202.986 34.4553 202.146 33.2621 201.055C32.0689 199.964 31.4723 198.537 31.4723 196.773C31.4723 195.307 31.8686 194.028 32.6612 192.938C33.4624 191.838 34.5362 190.986 35.8828 190.381C37.2379 189.767 38.7507 189.46 40.4212 189.46C42.1087 189.46 43.6087 189.763 44.9212 190.368C46.2337 190.964 47.2734 191.783 48.0405 192.822C48.8161 193.862 49.2251 195.043 49.2678 196.364H46.1996ZM54.4293 223.364V196.364H57.3441V199.483H57.7021C57.9237 199.142 58.2305 198.707 58.6225 198.179C59.0231 197.642 59.5941 197.165 60.3356 196.747C61.0856 196.321 62.0998 196.108 63.3782 196.108C65.0316 196.108 66.489 196.521 67.7504 197.348C69.0117 198.175 69.9961 199.347 70.7035 200.864C71.4109 202.381 71.7646 204.17 71.7646 206.233C71.7646 208.312 71.4109 210.115 70.7035 211.641C69.9961 213.158 69.016 214.334 67.7631 215.169C66.5103 215.996 65.0657 216.409 63.4293 216.409C62.168 216.409 61.158 216.2 60.3995 215.783C59.641 215.357 59.0572 214.875 58.6481 214.338C58.239 213.793 57.9237 213.341 57.7021 212.983H57.4464V223.364H54.4293ZM57.3952 206.182C57.3952 207.665 57.6126 208.973 58.0472 210.107C58.4819 211.232 59.1168 212.114 59.9521 212.753C60.7873 213.384 61.81 213.699 63.0202 213.699C64.2816 213.699 65.3342 213.366 66.1779 212.702C67.0302 212.028 67.6694 211.125 68.0955 209.991C68.5302 208.849 68.7475 207.58 68.7475 206.182C68.7475 204.801 68.5344 203.557 68.1083 202.449C67.6907 201.332 67.0558 200.45 66.2035 199.803C65.3597 199.146 64.2987 198.818 63.0202 198.818C61.793 198.818 60.7617 199.129 59.9265 199.751C59.0913 200.365 58.4606 201.226 58.0344 202.334C57.6083 203.433 57.3952 204.716 57.3952 206.182ZM84.3441 216.409C82.5714 216.409 81.016 215.987 79.6779 215.143C78.3484 214.3 77.3086 213.119 76.5586 211.602C75.8171 210.085 75.4464 208.312 75.4464 206.284C75.4464 204.239 75.8171 202.453 76.5586 200.928C77.3086 199.402 78.3484 198.217 79.6779 197.374C81.016 196.53 82.5714 196.108 84.3441 196.108C86.1168 196.108 87.668 196.53 88.9975 197.374C90.3356 198.217 91.3754 199.402 92.1168 200.928C92.8668 202.453 93.2418 204.239 93.2418 206.284C93.2418 208.312 92.8668 210.085 92.1168 211.602C91.3754 213.119 90.3356 214.3 88.9975 215.143C87.668 215.987 86.1168 216.409 84.3441 216.409ZM84.3441 213.699C85.6907 213.699 86.7987 213.354 87.668 212.663C88.5373 211.973 89.1808 211.065 89.5984 209.94C90.016 208.815 90.2248 207.597 90.2248 206.284C90.2248 204.972 90.016 203.749 89.5984 202.615C89.1808 201.482 88.5373 200.565 87.668 199.866C86.7987 199.168 85.6907 198.818 84.3441 198.818C82.9975 198.818 81.8896 199.168 81.0202 199.866C80.1509 200.565 79.5075 201.482 79.0898 202.615C78.6722 203.749 78.4634 204.972 78.4634 206.284C78.4634 207.597 78.6722 208.815 79.0898 209.94C79.5075 211.065 80.1509 211.973 81.0202 212.663C81.8896 213.354 82.9975 213.699 84.3441 213.699ZM106.387 196.364V198.92H96.2109V196.364H106.387ZM99.1768 191.659H102.194V210.375C102.194 211.227 102.317 211.866 102.565 212.293C102.82 212.71 103.144 212.991 103.536 213.136C103.937 213.273 104.359 213.341 104.802 213.341C105.134 213.341 105.407 213.324 105.62 213.29C105.833 213.247 106.004 213.213 106.131 213.188L106.745 215.898C106.54 215.974 106.255 216.051 105.888 216.128C105.522 216.213 105.058 216.256 104.495 216.256C103.643 216.256 102.808 216.072 101.989 215.706C101.18 215.339 100.506 214.781 99.9695 214.031C99.4411 213.281 99.1768 212.335 99.1768 211.193V191.659ZM3.52788 260V233.818H6.69833V257.188H18.8688V260H3.52788ZM31.3461 260.409C29.5733 260.409 28.0179 259.987 26.6799 259.143C25.3503 258.3 24.3105 257.119 23.5605 255.602C22.8191 254.085 22.4483 252.312 22.4483 250.284C22.4483 248.239 22.8191 246.453 23.5605 244.928C24.3105 243.402 25.3503 242.217 26.6799 241.374C28.0179 240.53 29.5733 240.108 31.3461 240.108C33.1188 240.108 34.6699 240.53 35.9995 241.374C37.3375 242.217 38.3773 243.402 39.1188 244.928C39.8688 246.453 40.2438 248.239 40.2438 250.284C40.2438 252.312 39.8688 254.085 39.1188 255.602C38.3773 257.119 37.3375 258.3 35.9995 259.143C34.6699 259.987 33.1188 260.409 31.3461 260.409ZM31.3461 257.699C32.6926 257.699 33.8006 257.354 34.6699 256.663C35.5392 255.973 36.1827 255.065 36.6003 253.94C37.0179 252.815 37.2267 251.597 37.2267 250.284C37.2267 248.972 37.0179 247.749 36.6003 246.615C36.1827 245.482 35.5392 244.565 34.6699 243.866C33.8006 243.168 32.6926 242.818 31.3461 242.818C29.9995 242.818 28.8915 243.168 28.0222 243.866C27.1529 244.565 26.5094 245.482 26.0918 246.615C25.6742 247.749 25.4654 248.972 25.4654 250.284C25.4654 251.597 25.6742 252.815 26.0918 253.94C26.5094 255.065 27.1529 255.973 28.0222 256.663C28.8915 257.354 29.9995 257.699 31.3461 257.699ZM52.8265 260.409C50.9856 260.409 49.4004 259.974 48.0708 259.105C46.7413 258.236 45.7186 257.038 45.0027 255.513C44.2868 253.987 43.9288 252.244 43.9288 250.284C43.9288 248.29 44.2953 246.53 45.0282 245.004C45.7697 243.47 46.801 242.273 48.122 241.412C49.4515 240.543 51.0027 240.108 52.7754 240.108C54.1561 240.108 55.4004 240.364 56.5083 240.875C57.6163 241.386 58.524 242.102 59.2314 243.023C59.9387 243.943 60.3777 245.017 60.5481 246.244H57.5311C57.301 245.349 56.7896 244.557 55.997 243.866C55.2129 243.168 54.1561 242.818 52.8265 242.818C51.6504 242.818 50.6191 243.125 49.7328 243.739C48.8549 244.344 48.1689 245.2 47.6745 246.308C47.1887 247.408 46.9458 248.699 46.9458 250.182C46.9458 251.699 47.1845 253.02 47.6618 254.145C48.1475 255.27 48.8294 256.143 49.7072 256.766C50.5936 257.388 51.6333 257.699 52.8265 257.699C53.6106 257.699 54.3223 257.562 54.9615 257.29C55.6007 257.017 56.1419 256.625 56.5851 256.114C57.0282 255.602 57.3436 254.989 57.5311 254.273H60.5481C60.3777 255.432 59.9558 256.476 59.2825 257.405C58.6177 258.325 57.7356 259.058 56.6362 259.604C55.5453 260.141 54.2754 260.409 52.8265 260.409ZM70.737 260.46C69.4927 260.46 68.3635 260.226 67.3493 259.757C66.335 259.28 65.5297 258.594 64.9331 257.699C64.3365 256.795 64.0382 255.705 64.0382 254.426C64.0382 253.301 64.2598 252.389 64.7029 251.69C65.1461 250.983 65.7385 250.429 66.4799 250.028C67.2214 249.628 68.0396 249.33 68.9345 249.134C69.8379 248.929 70.7456 248.767 71.6575 248.648C72.8507 248.494 73.818 248.379 74.5595 248.303C75.3095 248.217 75.8549 248.077 76.1958 247.881C76.5453 247.685 76.72 247.344 76.72 246.858V246.756C76.72 245.494 76.3748 244.514 75.6845 243.815C75.0027 243.116 73.9672 242.767 72.5779 242.767C71.1376 242.767 70.0083 243.082 69.1902 243.713C68.372 244.344 67.7967 245.017 67.4643 245.733L64.6007 244.71C65.112 243.517 65.7939 242.588 66.6461 241.923C67.5069 241.25 68.4444 240.781 69.4586 240.517C70.4814 240.244 71.487 240.108 72.4757 240.108C73.1064 240.108 73.8308 240.185 74.649 240.338C75.4757 240.483 76.2726 240.786 77.0396 241.246C77.8152 241.706 78.4586 242.401 78.97 243.33C79.4814 244.259 79.737 245.503 79.737 247.062V260H76.72V257.341H76.5666C76.362 257.767 76.0211 258.223 75.5439 258.709C75.0666 259.195 74.4316 259.608 73.639 259.949C72.8464 260.29 71.8791 260.46 70.737 260.46ZM71.1973 257.75C72.3904 257.75 73.3961 257.516 74.2143 257.047C75.041 256.578 75.6632 255.973 76.0808 255.232C76.5069 254.49 76.72 253.71 76.72 252.892V250.131C76.5922 250.284 76.3109 250.425 75.8762 250.553C75.4501 250.672 74.9558 250.778 74.3933 250.872C73.8393 250.957 73.2981 251.034 72.7697 251.102C72.2498 251.162 71.8279 251.213 71.5041 251.256C70.72 251.358 69.987 251.524 69.3052 251.754C68.6319 251.976 68.0865 252.312 67.6689 252.764C67.2598 253.207 67.0552 253.812 67.0552 254.58C67.0552 255.628 67.443 256.42 68.2186 256.957C69.0027 257.486 69.9956 257.75 71.1973 257.75ZM93.7836 240.364V242.92H83.6074V240.364H93.7836ZM86.5733 235.659H89.5904V254.375C89.5904 255.227 89.714 255.866 89.9611 256.293C90.2168 256.71 90.5407 256.991 90.9327 257.136C91.3333 257.273 91.7551 257.341 92.1983 257.341C92.5307 257.341 92.8034 257.324 93.0165 257.29C93.2296 257.247 93.4 257.213 93.5279 257.188L94.1415 259.898C93.937 259.974 93.6515 260.051 93.285 260.128C92.9185 260.213 92.454 260.256 91.8915 260.256C91.0392 260.256 90.204 260.072 89.3858 259.706C88.5762 259.339 87.9029 258.781 87.3659 258.031C86.8375 257.281 86.5733 256.335 86.5733 255.193V235.659ZM98.3219 260V240.364H101.339V260H98.3219ZM99.856 237.091C99.2679 237.091 98.7608 236.891 98.3347 236.49C97.9171 236.089 97.7083 235.608 97.7083 235.045C97.7083 234.483 97.9171 234.001 98.3347 233.601C98.7608 233.2 99.2679 233 99.856 233C100.444 233 100.947 233.2 101.365 233.601C101.791 234.001 102.004 234.483 102.004 235.045C102.004 235.608 101.791 236.089 101.365 236.49C100.947 236.891 100.444 237.091 99.856 237.091ZM114.842 260.409C113.069 260.409 111.514 259.987 110.176 259.143C108.846 258.3 107.807 257.119 107.057 255.602C106.315 254.085 105.944 252.312 105.944 250.284C105.944 248.239 106.315 246.453 107.057 244.928C107.807 243.402 108.846 242.217 110.176 241.374C111.514 240.53 113.069 240.108 114.842 240.108C116.615 240.108 118.166 240.53 119.496 241.374C120.834 242.217 121.873 243.402 122.615 244.928C123.365 246.453 123.74 248.239 123.74 250.284C123.74 252.312 123.365 254.085 122.615 255.602C121.873 257.119 120.834 258.3 119.496 259.143C118.166 259.987 116.615 260.409 114.842 260.409ZM114.842 257.699C116.189 257.699 117.297 257.354 118.166 256.663C119.035 255.973 119.679 255.065 120.096 253.94C120.514 252.815 120.723 251.597 120.723 250.284C120.723 248.972 120.514 247.749 120.096 246.615C119.679 245.482 119.035 244.565 118.166 243.866C117.297 243.168 116.189 242.818 114.842 242.818C113.496 242.818 112.388 243.168 111.518 243.866C110.649 244.565 110.006 245.482 109.588 246.615C109.17 247.749 108.961 248.972 108.961 250.284C108.961 251.597 109.17 252.815 109.588 253.94C110.006 255.065 110.649 255.973 111.518 256.663C112.388 257.354 113.496 257.699 114.842 257.699ZM131.362 248.188V260H128.345V240.364H131.26V243.432H131.516C131.976 242.435 132.675 241.634 133.612 241.028C134.55 240.415 135.76 240.108 137.243 240.108C138.573 240.108 139.736 240.381 140.733 240.926C141.73 241.463 142.506 242.281 143.06 243.381C143.614 244.472 143.891 245.852 143.891 247.523V260H140.874V247.727C140.874 246.185 140.473 244.983 139.672 244.122C138.871 243.253 137.771 242.818 136.374 242.818C135.411 242.818 134.55 243.027 133.791 243.445C133.041 243.862 132.449 244.472 132.014 245.273C131.58 246.074 131.362 247.045 131.362 248.188Z" fill="#F9A826"/>
</svg>
